<?xml version="1.0" standalone="no"?>
<!DOCTYPE svg PUBLIC "-//W3C//DTD SVG 1.1//EN" "http://www.w3.org/Graphics/SVG/1.1/DTD/svg11.dtd" >
<svg>
<metadata>
Created by FontForge 20110222 at Thu Nov 19 09:53:51 2015
 By www-data
(C)2002 House Industries/Brand Design Co. Inc.
</metadata>
<defs>
<font id="NeutraDisp-Medium" horiz-adv-x="172" >
  <font-face 
    font-family="Neutra Display Thin"
    font-weight="500"
    font-stretch="normal"
    units-per-em="1000"
    panose-1="2 0 0 0 0 0 0 0 0 0"
    ascent="780"
    descent="-220"
    x-height="329"
    cap-height="680"
    bbox="-41 -223 1130 889"
    underline-thickness="20"
    underline-position="-123"
    stemh="54"
    stemv="61"
    unicode-range="U+000D-FB04"
  />
<missing-glyph horiz-adv-x="500" 
 />
    <glyph glyph-name="fi" unicode="fi" horiz-adv-x="379" 
d="M295 449c-22 0 -42 18 -42 42s20 42 42 42s42 -18 42 -42s-20 -42 -42 -42zM130 277v-277h-61v277h-43v52h43v282c0 72 38 107 95 107c38 0 62 -13 80 -35l-36 -39c-9 12 -21 20 -40 20c-22 0 -38 -14 -38 -54v-281h195v-329h-61v277h-134z" />
    <glyph glyph-name="fl" unicode="fl" horiz-adv-x="381" 
d="M130 277v-277h-61v277h-43v52h43v257c0 88 60 132 130 132c73 0 128 -44 128 -133v-585h-61v583c0 53 -22 82 -67 82s-69 -27 -69 -80v-256h75v-52h-75z" />
    <glyph glyph-name="ff" unicode="ff" horiz-adv-x="438" 
d="M327 277v-277h-61v277h-136v-277h-61v277h-43v52h43v283c0 72 39 106 92 106c35 0 60 -11 77 -28l-34 -41c-8 9 -18 15 -36 15c-22 0 -38 -14 -38 -54v-281h136v282c0 72 39 107 95 107c38 0 63 -13 81 -35l-37 -39c-9 12 -21 20 -39 20c-23 0 -39 -14 -39 -54v-281h83
v-52h-83z" />
    <glyph glyph-name="ffi" unicode="ffi" horiz-adv-x="579" 
d="M495 449c-22 0 -42 18 -42 42s20 42 42 42s42 -18 42 -42s-20 -42 -42 -42zM266 329v282c0 72 39 107 95 107c38 0 63 -13 81 -35l-37 -39c-9 12 -21 20 -39 20c-23 0 -39 -14 -39 -54v-281h198v-329h-61v277h-137v-277h-61v277h-136v-277h-61v277h-43v52h43v283
c0 72 39 106 92 106c35 0 60 -11 77 -28l-34 -41c-8 9 -18 15 -36 15c-22 0 -38 -14 -38 -54v-281h136z" />
    <glyph glyph-name="ffl" unicode="ffl" horiz-adv-x="579" 
d="M266 329v257c0 88 61 132 130 132c74 0 129 -44 129 -133v-585h-61v583c0 53 -23 82 -68 82s-69 -27 -69 -80v-256h75v-52h-75v-277h-61v277h-136v-277h-61v277h-43v52h43v283c0 72 39 106 92 106c35 0 60 -11 77 -28l-34 -41c-8 9 -18 15 -36 15c-22 0 -38 -14 -38 -54
v-281h136z" />
    <glyph glyph-name="LA" unicode="LA" horiz-adv-x="1136" 
d="M641 118l-48 -118h-65l286 696h5l287 -696h-67l-47 118h-351zM88 0v680h65v-622h320l-24 -58h-361zM968 176c1 0 -151 377 -151 377l-153 -377h304z" />
    <glyph glyph-name="fb" unicode="fb" horiz-adv-x="638" 
d="M130 329h75v-52h-75v-277h-61v277h-43v52h43v257c0 88 60 132 130 132c73 0 128 -44 128 -133v-312c23 41 64 64 119 64c92 0 162 -74 162 -173c0 -98 -70 -172 -162 -172c-55 0 -96 23 -119 64v-56h-61v583c0 53 -22 82 -67 82s-69 -27 -69 -80v-256zM434 46
c66 0 111 49 111 118c0 70 -45 119 -111 119c-65 0 -109 -49 -109 -119c0 -69 44 -118 109 -118z" />
    <glyph glyph-name="fh" unicode="fh" horiz-adv-x="612" 
d="M130 329h75v-52h-75v-277h-61v277h-43v52h43v257c0 88 60 132 130 132c73 0 128 -44 128 -133v-309c24 40 63 61 113 61c72 0 126 -46 126 -135v-202h-61v196c0 58 -28 86 -80 86c-59 0 -98 -37 -98 -100v-182h-61v583c0 53 -22 82 -67 82s-69 -27 -69 -80v-256z" />
    <glyph glyph-name="fj" unicode="fj" horiz-adv-x="379" 
d="M295 449c-22 0 -42 18 -42 42s20 42 42 42s42 -18 42 -42s-20 -42 -42 -42zM130 277v-277h-61v277h-43v52h43v282c0 72 38 107 95 107c38 0 62 -13 80 -35l-36 -39c-9 12 -21 20 -40 20c-22 0 -38 -14 -38 -54v-281h196v-451c0 -64 -34 -99 -90 -99c-32 0 -52 11 -68 26
l31 40c8 -7 18 -12 30 -12c24 0 41 15 35 45v399h-134z" />
    <glyph glyph-name="fk" unicode="fk" horiz-adv-x="571" 
d="M130 277v-277h-61v277h-43v52h43v257c0 88 60 132 130 132c73 0 128 -44 128 -133v-418l140 162h72l-124 -141l145 -188h-76l-109 142c0 1 -30 -34 -48 -54v-88h-61v583c0 53 -22 82 -67 82s-69 -27 -69 -80v-256h75v-52h-75z" />
    <glyph glyph-name="ffb" unicode="ffb" horiz-adv-x="835" 
d="M69 277h-43v52h43v283c0 72 39 106 92 106c35 0 60 -11 77 -28l-34 -41c-8 9 -18 15 -36 15c-22 0 -38 -14 -38 -54v-281h136v257c0 88 60 132 130 132c73 0 128 -44 128 -133v-312c23 41 64 64 119 64c92 0 162 -74 162 -173c0 -98 -70 -172 -162 -172
c-55 0 -96 23 -119 64v-56h-61v583c0 53 -22 82 -67 82s-69 -27 -69 -80v-256h75v-52h-75v-277h-61v277h-136v-277h-61v277zM631 46c66 0 111 49 111 118c0 70 -45 119 -111 119c-65 0 -109 -49 -109 -119c0 -69 44 -118 109 -118z" />
    <glyph glyph-name="fff" unicode="fff" horiz-adv-x="635" 
d="M130 277v-277h-61v277h-43v52h43v283c0 72 39 106 92 106c35 0 60 -11 77 -28l-34 -41c-8 9 -18 15 -36 15c-22 0 -38 -14 -38 -54v-281h136v283c0 72 39 106 92 106c35 0 60 -11 77 -28l-34 -41c-8 9 -18 15 -36 15c-22 0 -38 -14 -38 -54v-281h136v282
c0 72 39 107 95 107c38 0 63 -13 81 -35l-37 -39c-9 12 -21 20 -39 20c-23 0 -39 -14 -39 -54v-281h83v-52h-83v-277h-61v277h-136v-277h-61v277h-136z" />
    <glyph glyph-name="ffh" unicode="ffh" horiz-adv-x="809" 
d="M69 277h-43v52h43v283c0 72 39 106 92 106c35 0 60 -11 77 -28l-34 -41c-8 9 -18 15 -36 15c-22 0 -38 -14 -38 -54v-281h136v257c0 88 60 132 130 132c73 0 128 -44 128 -133v-309c24 40 63 61 113 61c72 0 126 -46 126 -135v-202h-61v196c0 58 -28 86 -80 86
c-59 0 -98 -37 -98 -100v-182h-61v583c0 53 -22 82 -67 82s-69 -27 -69 -80v-256h75v-52h-75v-277h-61v277h-136v-277h-61v277z" />
    <glyph glyph-name="ffj" unicode="ffj" horiz-adv-x="579" 
d="M495 449c-22 0 -42 18 -42 42s20 42 42 42s42 -18 42 -42s-20 -42 -42 -42zM327 277v-277h-61v277h-136v-277h-61v277h-43v52h43v283c0 72 39 106 92 106c35 0 60 -11 77 -28l-34 -41c-8 9 -18 15 -36 15c-22 0 -38 -14 -38 -54v-281h136v282c0 72 39 107 95 107
c38 0 63 -13 81 -35l-37 -39c-9 12 -21 20 -39 20c-23 0 -39 -13 -39 -54v-281h198v-451c0 -64 -33 -99 -89 -99c-32 0 -52 11 -68 26l31 40c8 -7 18 -12 30 -12c24 0 35 14 35 45v399h-137z" />
    <glyph glyph-name="ffk" unicode="ffk" horiz-adv-x="768" 
d="M266 329v257c0 88 61 132 130 132c74 0 129 -44 129 -133v-416l139 160h72l-124 -141l145 -188h-76l-109 142c0 1 -29 -33 -47 -53v-89h-61v583c0 53 -23 82 -68 82s-69 -27 -69 -80v-256h75v-52h-75v-277h-61v277h-136v-277h-61v277h-43v52h43v283c0 72 39 106 92 106
c35 0 60 -11 77 -28l-34 -41c-8 9 -18 15 -36 15c-22 0 -38 -14 -38 -54v-281h136z" />
    <glyph glyph-name=".notdef" horiz-adv-x="500" 
 />
    <glyph glyph-name=".notdef" horiz-adv-x="500" 
 />
    <glyph glyph-name="space" unicode=" " horiz-adv-x="182" 
 />
    <glyph glyph-name="exclam" unicode="!" horiz-adv-x="214" 
d="M80 182l-7 498h69l-7 -498h-55zM107 -6c-24 0 -47 20 -47 47s23 47 47 47c25 0 47 -20 47 -47s-22 -47 -47 -47z" />
    <glyph glyph-name="quotedbl" unicode="&#x22;" horiz-adv-x="262" 
d="M165 509l-9 171h69l-8 -171h-52zM45 509l-8 171h68l-8 -171h-52z" />
    <glyph glyph-name="numbersign" unicode="#" horiz-adv-x="435" 
d="M127 355c1 0 -72 0 -72 0v51h85c15 57 27 107 27 107h54l-27 -107h99l27 107h54l-27 -107h68v-51h-81l-27 -107h75l-1 -51h-87l-26 -102h-54l26 102h-99l-25 -102h-54l26 102h-68v51h80s13 50 27 107zM280 355h-99l-27 -107h99z" />
    <glyph glyph-name="dollar" unicode="$" horiz-adv-x="424" 
d="M185 -7c-85 8 -142 54 -168 112l51 30c22 -49 57 -81 117 -88v197l-3 1c-92 29 -137 68 -137 147c0 74 58 123 140 128v91h49v-92c62 -8 103 -38 128 -83l-46 -30c-19 32 -40 53 -82 60v-174l11 -3c99 -31 146 -75 146 -154c0 -84 -59 -135 -157 -142v-109h-49v109z
M185 467c-48 -4 -80 -28 -80 -72c0 -47 21 -69 80 -88v160zM234 47c63 6 97 37 97 86c0 53 -26 74 -97 96c0 1 0 -182 0 -182z" />
    <glyph glyph-name="percent" unicode="%" horiz-adv-x="720" 
d="M170 233c-77 0 -145 61 -145 144c0 84 68 144 145 144s146 -60 146 -144c0 -83 -69 -144 -146 -144zM173 0l309 513h64l-309 -513h-64zM550 -8c-77 0 -146 60 -146 144c0 83 69 144 146 144c76 0 145 -61 145 -144c0 -84 -69 -144 -145 -144zM170 286c48 0 88 37 88 91
c0 55 -40 91 -88 91s-88 -36 -88 -91c0 -54 40 -91 88 -91zM550 45c48 0 88 36 88 91c0 54 -40 91 -88 91s-88 -37 -88 -91c0 -55 40 -91 88 -91z" />
    <glyph glyph-name="ampersand" unicode="&#x26;" horiz-adv-x="639" 
d="M303 392l157 -194c18 47 28 105 28 172h60c0 -89 -17 -164 -46 -223l119 -147h-80l-74 91c-51 -64 -124 -99 -209 -99c-129 0 -221 75 -221 189c0 113 81 167 176 222l-12 15c-39 48 -54 90 -54 133c0 77 57 137 143 137c84 0 136 -58 136 -135c0 -66 -50 -116 -123 -161
zM268 434c57 34 96 67 96 119c0 45 -28 79 -74 79c-49 0 -80 -34 -80 -81c0 -35 16 -65 40 -95zM429 138l-181 222c-85 -48 -144 -91 -144 -179c0 -81 65 -132 154 -132c73 0 131 31 171 89z" />
    <glyph glyph-name="quoteright" unicode="&#x2019;" horiz-adv-x="174" 
d="M43 525l28 75c-15 5 -30 21 -30 42c0 26 22 45 46 45s46 -19 46 -45c0 -14 -5 -26 -12 -38l-44 -79h-34z" />
    <glyph glyph-name="parenleft" unicode="(" horiz-adv-x="276" 
d="M211 -136c-84 88 -169 224 -169 427c0 202 85 339 169 427l40 -33c-78 -90 -143 -214 -143 -394s65 -304 143 -394z" />
    <glyph glyph-name="parenright" unicode=")" horiz-adv-x="276" 
d="M64 -136l-39 33c77 90 143 214 143 394s-66 304 -143 394l39 33c85 -88 170 -224 170 -427c0 -202 -85 -339 -170 -427z" />
    <glyph glyph-name="asterisk" unicode="*" horiz-adv-x="358" 
d="M153 430l8 94l-75 -53l-26 45l85 39l-85 38l26 46l75 -53l-8 94h53l-8 -94l74 53l26 -46l-85 -38l85 -39l-26 -45l-74 53l8 -94h-53z" />
    <glyph glyph-name="plus" unicode="+" horiz-adv-x="332" 
d="M195 222v-109h-58v109h-100v56h100v109h58v-109h100v-56h-100z" />
    <glyph glyph-name="comma" unicode="," horiz-adv-x="175" 
d="M39 -82l31 80c-15 6 -28 22 -28 43c0 27 22 47 47 47c24 0 47 -20 47 -47c0 -14 -6 -25 -14 -38l-48 -85h-35z" />
    <glyph glyph-name="hyphen" unicode="-" horiz-adv-x="234" 
d="M36 162v55h162v-55h-162z" />
    <glyph glyph-name="hyphen" unicode="&#xad;" horiz-adv-x="234" 
d="M36 162v55h162v-55h-162z" />
    <glyph glyph-name="period" unicode="." 
d="M86 -6c-25 0 -47 20 -47 47s22 47 47 47c24 0 47 -20 47 -47s-23 -47 -47 -47z" />
    <glyph glyph-name="slash" unicode="/" horiz-adv-x="407" 
d="M6 -128l299 838h64l-299 -838h-64z" />
    <glyph glyph-name="zero" unicode="0" horiz-adv-x="605" 
d="M302 -8c-145 0 -267 114 -267 265c0 152 122 264 267 264c146 0 268 -112 268 -264c0 -151 -122 -265 -268 -265zM302 48c116 0 201 88 201 209c0 122 -85 208 -201 208c-115 0 -200 -86 -200 -208c0 -121 85 -209 200 -209z" />
    <glyph glyph-name="one" unicode="1" horiz-adv-x="267" 
d="M119 0v459h-86v54h150v-513h-64z" />
    <glyph glyph-name="two" unicode="2" horiz-adv-x="423" 
d="M12 0v4l181 184c59 60 118 118 118 184c0 65 -43 93 -96 93c-56 0 -99 -38 -116 -96l-56 21c26 84 92 131 172 131c89 0 161 -52 161 -149c0 -74 -69 -149 -134 -213l-106 -105h251v-54h-375z" />
    <glyph glyph-name="three" unicode="3" horiz-adv-x="437" 
d="M209 -8c-94 0 -165 55 -193 119l54 27c27 -57 74 -91 139 -91c75 0 126 47 126 125c0 77 -53 120 -131 120c-33 0 -57 -6 -76 -12l-5 8l150 171h-219v54h329v-4l-147 -170c92 -3 165 -67 165 -168c0 -105 -74 -179 -192 -179z" />
    <glyph glyph-name="four" unicode="4" horiz-adv-x="459" 
d="M361 148h69v-53h-69v-95h-63v95h-278v34l336 399h5v-380zM298 148v235l-192 -235h192z" />
    <glyph glyph-name="five" unicode="5" horiz-adv-x="431" 
d="M205 -8c-90 0 -155 47 -181 98l53 30c22 -42 63 -73 128 -73c74 0 122 50 122 124c0 75 -46 122 -132 122c-64 0 -101 -22 -127 -43l-4 1v262h290v-54h-234v-130c18 10 46 19 88 19c109 0 185 -73 185 -178c0 -104 -71 -178 -188 -178z" />
    <glyph glyph-name="six" unicode="6" horiz-adv-x="447" 
d="M224 -8c-105 0 -189 71 -189 177c0 50 23 98 61 150l141 194h70l-134 -184c16 11 39 17 63 17c99 0 176 -74 176 -176c0 -105 -83 -178 -188 -178zM224 48c74 0 122 51 122 122c0 73 -48 124 -122 124c-77 0 -124 -56 -124 -124c0 -71 49 -122 124 -122z" />
    <glyph glyph-name="seven" unicode="7" horiz-adv-x="425" 
d="M84 0l230 459h-283v54h374v-4l-253 -509h-68z" />
    <glyph glyph-name="eight" unicode="8" horiz-adv-x="435" 
d="M140 298c-35 20 -60 53 -60 99c0 67 55 124 140 124s140 -57 140 -124c0 -46 -25 -79 -60 -99c63 -24 106 -76 106 -144c0 -92 -74 -162 -186 -162c-111 0 -186 70 -186 162c0 68 43 120 106 144zM220 321c47 0 77 30 77 73c0 44 -31 74 -77 74c-45 0 -77 -30 -77 -74
c0 -43 31 -73 77 -73zM220 47c72 0 121 47 121 112c0 64 -47 110 -121 110c-73 0 -120 -46 -120 -110c0 -65 49 -112 120 -112z" />
    <glyph glyph-name="nine" unicode="9" horiz-adv-x="446" 
d="M146 0l128 185c-16 -12 -40 -18 -61 -18c-99 0 -178 74 -178 176c0 105 83 178 188 178s188 -71 188 -177c0 -50 -23 -96 -61 -150l-134 -194h-70zM222 219c78 0 124 56 124 124c0 71 -48 122 -123 122c-74 0 -122 -51 -122 -122c0 -73 47 -124 121 -124z" />
    <glyph glyph-name="colon" unicode=":" horiz-adv-x="180" 
d="M90 210c-24 0 -47 20 -47 47s23 47 47 47s47 -20 47 -47s-23 -47 -47 -47zM90 -6c-24 0 -47 20 -47 47s23 47 47 47s47 -20 47 -47s-23 -47 -47 -47z" />
    <glyph glyph-name="semicolon" unicode=";" horiz-adv-x="183" 
d="M93 210c-24 0 -47 20 -47 47s23 47 47 47s47 -20 47 -47s-23 -47 -47 -47zM43 -82l31 80c-15 6 -28 22 -28 43c0 27 23 47 47 47s47 -20 47 -47c0 -14 -6 -25 -13 -38l-49 -85h-35z" />
    <glyph glyph-name="semicolon" unicode="&#x37e;" horiz-adv-x="183" 
d="M93 210c-24 0 -47 20 -47 47s23 47 47 47s47 -20 47 -47s-23 -47 -47 -47zM43 -82l31 80c-15 6 -28 22 -28 43c0 27 23 47 47 47s47 -20 47 -47c0 -14 -6 -25 -13 -38l-49 -85h-35z" />
    <glyph glyph-name="less" unicode="&#x3c;" horiz-adv-x="317" 
d="M280 106l-251 136v4l251 134v-57l-151 -80l151 -80v-57z" />
    <glyph glyph-name="equal" unicode="=" horiz-adv-x="332" 
d="M37 279v56h258v-56h-258zM37 163v56h258v-56h-258z" />
    <glyph glyph-name="greater" unicode="&#x3e;" horiz-adv-x="317" 
d="M37 106v57l151 80l-151 80v57l251 -136v-4z" />
    <glyph glyph-name="question" unicode="?" horiz-adv-x="443" 
d="M167 179v192h29c91 0 139 61 139 132c0 79 -50 129 -126 129c-67 0 -106 -36 -135 -88l-50 29c32 65 95 115 185 115c118 0 191 -78 191 -185c0 -101 -67 -175 -174 -185v-139h-59zM196 -6c-24 0 -47 20 -47 47s23 47 47 47s47 -20 47 -47s-23 -47 -47 -47z" />
    <glyph glyph-name="at" unicode="@" horiz-adv-x="738" 
d="M378 -179c-198 0 -345 144 -345 339c0 193 152 339 339 339c196 0 333 -140 333 -320c0 -128 -59 -191 -132 -191c-56 0 -90 29 -103 74c-25 -47 -65 -70 -120 -70c-83 0 -150 70 -150 162c0 93 67 165 150 165c52 0 88 -24 108 -62v54h62v-205c0 -41 16 -68 54 -68
c40 0 75 45 75 140c0 157 -107 270 -278 270c-165 0 -278 -125 -278 -288c0 -165 113 -288 284 -288c50 0 99 11 140 34l25 -45c-46 -27 -101 -40 -164 -40zM361 45c58 0 98 47 98 109c0 63 -40 112 -98 112s-96 -49 -96 -112c0 -62 38 -109 96 -109z" />
    <glyph glyph-name="A" unicode="A" horiz-adv-x="638" 
d="M143 118l-48 -118h-65l286 696h5l287 -696h-67l-47 118h-351zM470 176c1 0 -151 377 -151 377l-153 -377h304z" />
    <glyph glyph-name="B" unicode="B" horiz-adv-x="592" 
d="M87 0v680h222c128 0 191 -74 191 -167c0 -65 -32 -111 -87 -136c86 -23 141 -88 141 -179c0 -110 -72 -198 -219 -198h-248zM152 399h164c86 0 119 47 119 113c0 62 -37 110 -130 110h-153v-223zM152 58h177c113 0 159 61 159 142c0 83 -51 144 -161 144h-175v-286z" />
    <glyph glyph-name="C" unicode="C" horiz-adv-x="708" 
d="M388 -8c-195 0 -347 146 -346 348c0 202 151 348 344 348c115 0 206 -47 267 -127l-50 -36c-51 66 -123 104 -218 104c-158 0 -275 -124 -275 -289c0 -167 119 -289 280 -289c98 0 177 41 231 113l51 -36c-67 -88 -162 -136 -284 -136z" />
    <glyph glyph-name="D" unicode="D" horiz-adv-x="661" 
d="M87 0v680h170c225 0 359 -139 359 -340s-133 -340 -359 -340h-170zM152 59h99c201 0 297 116 297 281s-96 281 -297 281h-99v-562z" />
    <glyph glyph-name="E" unicode="E" horiz-adv-x="562" 
d="M87 0v680h410v-58h-345v-340h308v-57h-308v-167h359v-58h-424z" />
    <glyph glyph-name="F" unicode="F" horiz-adv-x="539" 
d="M87 0v680h406v-58h-341v-340h310v-58h-310v-224h-65z" />
    <glyph glyph-name="G" unicode="G" horiz-adv-x="722" 
d="M397 -8c-199 0 -355 147 -355 348s154 348 345 348c119 0 198 -42 256 -106l-46 -43c-47 52 -107 90 -212 90c-158 0 -275 -124 -275 -289s119 -289 287 -289c100 0 163 29 207 66v107h-205v58h267v-195c-62 -55 -141 -95 -269 -95z" />
    <glyph glyph-name="H" unicode="H" horiz-adv-x="675" 
d="M523 282v398h65v-680h-65v224h-371v-224h-65v680h65v-398h371z" />
    <glyph glyph-name="I" unicode="I" horiz-adv-x="248" 
d="M91 0v680h66v-680h-66z" />
    <glyph glyph-name="J" unicode="J" horiz-adv-x="460" 
d="M201 -8c-90 0 -143 43 -174 100l53 33c25 -46 62 -74 119 -74c66 0 113 38 113 128v501h66v-503c0 -123 -76 -185 -177 -185z" />
    <glyph glyph-name="K" unicode="K" horiz-adv-x="588" 
d="M152 288l309 392h73l-254 -323l283 -357h-78l-246 310l-87 -108v-202h-65v680h65v-392z" />
    <glyph glyph-name="L" unicode="L" horiz-adv-x="502" 
d="M87 0v680h65v-622h316v-58h-381z" />
    <glyph glyph-name="M" unicode="M" horiz-adv-x="821" 
d="M87 0v694h4l320 -396l318 396h5v-694h-62v534l-261 -328h-4l-258 328v-534h-62z" />
    <glyph glyph-name="N" unicode="N" horiz-adv-x="699" 
d="M606 -14l-458 549v-535h-61v694h6l458 -549v535h61v-694h-6z" />
    <glyph glyph-name="O" unicode="O" horiz-adv-x="782" 
d="M391 -8c-193 0 -349 147 -349 348s156 348 349 348s349 -147 349 -348s-156 -348 -349 -348zM391 51c162 0 281 124 281 289s-119 289 -281 289s-281 -124 -281 -289s119 -289 281 -289z" />
    <glyph glyph-name="P" unicode="P" horiz-adv-x="560" 
d="M152 170v-170h-65v680h146c184 0 280 -109 280 -256c0 -146 -96 -254 -280 -254h-81zM152 228h77c155 0 217 83 217 196c0 114 -62 198 -217 198h-77v-394z" />
    <glyph glyph-name="Q" unicode="Q" horiz-adv-x="782" 
d="M422 -7v-117h-62v117c-178 15 -318 157 -318 347c0 201 156 348 349 348s349 -147 349 -348c0 -190 -140 -332 -318 -347zM360 52v124h62v-124c146 14 250 132 250 288c0 165 -119 288 -281 288s-281 -123 -281 -288c0 -156 104 -274 250 -288z" />
    <glyph glyph-name="R" unicode="R" horiz-adv-x="570" 
d="M357 189l148 -189h-79l-135 174c-18 -3 -36 -4 -56 -4h-83v-170h-65v680h148c185 0 281 -109 281 -256c0 -109 -54 -198 -159 -235zM152 227h79c155 0 217 83 217 197s-63 198 -217 198h-79v-395z" />
    <glyph glyph-name="S" unicode="S" horiz-adv-x="525" 
d="M29 129l55 29c36 -68 98 -107 178 -107c93 0 148 46 148 117c0 75 -46 109 -128 147l-55 26c-98 46 -157 90 -157 185c0 97 75 162 175 162c85 0 144 -32 186 -100l-50 -32c-31 51 -73 75 -135 75c-67 0 -112 -43 -112 -103c0 -65 37 -89 120 -128l55 -26
c109 -52 166 -102 166 -204c0 -112 -85 -178 -212 -178c-111 0 -190 54 -234 137z" />
    <glyph glyph-name="T" unicode="T" horiz-adv-x="536" 
d="M236 0v622h-211v58h486v-58h-210v-622h-65z" />
    <glyph glyph-name="U" unicode="U" horiz-adv-x="644" 
d="M322 -8c-137 0 -240 81 -240 239v449h65v-444c0 -123 69 -185 175 -185c107 0 175 62 175 185v444h65v-449c0 -158 -103 -239 -240 -239z" />
    <glyph glyph-name="V" unicode="V" horiz-adv-x="638" 
d="M317 -14l-287 694h70l220 -547l221 547h67l-287 -694h-4z" />
    <glyph glyph-name="W" unicode="W" horiz-adv-x="936" 
d="M254 -13l-226 693h68l166 -529l205 545h5l206 -545l165 529h64l-224 -693h-5l-208 553l-212 -553h-4z" />
    <glyph glyph-name="X" unicode="X" horiz-adv-x="622" 
d="M274 368l-200 312h74l163 -254l163 254h70l-198 -308l239 -372h-74l-202 314c0 1 -202 -314 -202 -314h-70s237 369 237 368z" />
    <glyph glyph-name="Y" unicode="Y" horiz-adv-x="630" 
d="M284 213l-257 467h72l219 -401l218 401h68l-254 -467v-213h-66v213z" />
    <glyph glyph-name="Z" unicode="Z" horiz-adv-x="574" 
d="M32 0v4l396 618h-347v58h453v-4l-396 -618h398v-58h-504z" />
    <glyph glyph-name="bracketleft" unicode="[" horiz-adv-x="282" 
d="M79 -128v838h167v-54h-104v-730h104v-54h-167z" />
    <glyph glyph-name="backslash" unicode="\" horiz-adv-x="407" 
d="M337 -128l-299 838h63l300 -838h-64z" />
    <glyph glyph-name="bracketright" unicode="]" horiz-adv-x="283" 
d="M36 -128v54h105v730h-105v54h168v-838h-168z" />
    <glyph glyph-name="asciicircum" unicode="^" horiz-adv-x="275" 
d="M39 224v59h197v-59h-197z" />
    <glyph glyph-name="underscore" unicode="_" horiz-adv-x="253" 
d="M-2 -128v55h257v-55h-257z" />
    <glyph glyph-name="quoteleft" unicode="&#x2018;" horiz-adv-x="174" 
d="M87 517c-24 0 -46 20 -46 45c0 14 5 27 12 39l44 79h34l-28 -75c15 -6 30 -21 30 -42c0 -26 -22 -46 -46 -46z" />
    <glyph glyph-name="a" unicode="a" horiz-adv-x="369" 
d="M259 199v3c0 61 -30 83 -77 83c-42 0 -70 -16 -93 -47l-39 34c33 44 77 65 134 65c84 0 136 -44 136 -135v-202h-61v37c-22 -28 -58 -45 -103 -45c-69 0 -125 34 -125 106c0 67 59 101 129 101h99zM259 150h-95c-40 0 -72 -15 -72 -52s28 -56 74 -56c49 0 93 26 93 72v36
z" />
    <glyph glyph-name="b" unicode="b" horiz-adv-x="424" 
d="M232 -8c-55 0 -96 23 -119 64v-56h-61v710h61v-437c23 41 64 64 119 64c92 0 162 -74 162 -173c0 -98 -70 -172 -162 -172zM220 46c66 0 111 49 111 118c0 70 -45 119 -111 119c-65 0 -109 -49 -109 -119c0 -69 44 -118 109 -118z" />
    <glyph glyph-name="c" unicode="c" horiz-adv-x="361" 
d="M200 -8c-96 0 -170 74 -170 172c0 99 74 173 170 173c58 0 99 -19 130 -53l-41 -37c-21 23 -51 37 -89 37c-64 0 -106 -52 -106 -120c0 -67 42 -119 106 -119c45 0 76 18 97 41l41 -36c-31 -37 -76 -58 -138 -58z" />
    <glyph glyph-name="d" unicode="d" horiz-adv-x="426" 
d="M193 -8c-92 0 -163 74 -163 172c0 99 71 173 163 173c54 0 95 -23 119 -64v437h61v-710h-61v56c-24 -41 -65 -64 -119 -64zM204 46c66 0 110 49 110 118c0 70 -44 119 -110 119s-110 -49 -110 -119c0 -69 44 -118 110 -118z" />
    <glyph glyph-name="e" unicode="e" horiz-adv-x="400" 
d="M94 142c9 -61 51 -98 115 -98c51 0 81 18 103 43l38 -37c-30 -36 -75 -58 -140 -58c-107 0 -180 74 -180 172c0 99 77 173 173 173c105 0 169 -82 167 -195h-276zM96 193h210c-8 52 -41 92 -103 92c-57 0 -97 -36 -107 -92z" />
    <glyph glyph-name="f" unicode="f" horiz-adv-x="240" 
d="M130 277v-277h-61v277h-43v52h43v282c0 72 38 107 95 107c38 0 62 -13 80 -35l-36 -39c-9 12 -21 20 -40 20c-22 0 -38 -14 -38 -54v-281h83v-52h-83z" />
    <glyph glyph-name="g" unicode="g" horiz-adv-x="364" 
d="M225 329h119v-49h-61c16 -20 26 -45 26 -72c0 -74 -58 -128 -133 -128c-25 0 -46 5 -65 14c-14 -4 -22 -15 -22 -29c0 -22 11 -35 97 -38c121 -5 169 -53 169 -121c0 -79 -68 -129 -176 -129c-106 0 -174 46 -174 120c0 50 29 83 80 98c-35 10 -50 36 -50 64
c0 29 17 49 44 60c-23 22 -37 54 -37 89c0 75 58 129 134 129c18 0 34 -3 49 -8zM176 129c47 0 78 33 78 79c0 47 -31 80 -78 80s-79 -33 -79 -80c0 -46 32 -79 79 -79zM179 -170c69 0 115 26 115 74c0 44 -33 68 -124 68c-73 0 -108 -27 -108 -71c0 -47 47 -71 117 -71z
" />
    <glyph glyph-name="h" unicode="h" horiz-adv-x="397" 
d="M51 0v710h61v-434c24 40 63 61 113 61c72 0 126 -46 126 -135v-202h-61v196c0 58 -28 86 -80 86c-59 0 -98 -37 -98 -100v-182h-61z" />
    <glyph glyph-name="i" unicode="i" horiz-adv-x="168" 
d="M84 449c-22 0 -42 18 -42 42s20 42 42 42s42 -18 42 -42s-20 -42 -42 -42zM53 0v329h62v-329h-62z" />
    <glyph glyph-name="j" unicode="j" horiz-adv-x="170" 
d="M86 449c-22 0 -42 18 -42 42s20 42 42 42s42 -18 42 -42s-20 -42 -42 -42zM27 -221c-32 0 -52 11 -68 26l31 40c8 -7 18 -12 30 -12c24 0 35 14 35 45v451h62v-451c0 -64 -34 -99 -90 -99z" />
    <glyph glyph-name="k" unicode="k" horiz-adv-x="356" 
d="M112 88v-88h-61v710h61v-543l140 162h72l-124 -141l145 -188h-76l-109 142c0 1 -30 -34 -48 -54z" />
    <glyph glyph-name="l" unicode="l" horiz-adv-x="170" 
d="M54 0v710h62v-710h-62z" />
    <glyph glyph-name="m" unicode="m" horiz-adv-x="590" 
d="M51 0v329h61v-45c18 34 53 53 98 53c44 0 79 -20 99 -61c26 41 63 61 116 61c69 0 119 -47 119 -127v-210h-61v203c0 52 -24 79 -70 79c-55 0 -85 -33 -85 -91v-191h-61v202c0 52 -23 80 -70 80c-54 0 -85 -33 -85 -93v-189h-61z" />
    <glyph glyph-name="n" unicode="n" horiz-adv-x="397" 
d="M51 0v329h61v-53c21 40 63 61 113 61c72 0 126 -46 126 -135v-202h-61v196c0 58 -28 86 -80 86c-59 0 -98 -37 -98 -100v-182h-61z" />
    <glyph glyph-name="o" unicode="o" horiz-adv-x="409" 
d="M205 -8c-98 0 -175 74 -175 172c0 99 77 173 175 173c97 0 174 -74 174 -173c0 -98 -77 -172 -174 -172zM205 44c66 0 111 52 111 120c0 69 -45 121 -111 121s-111 -52 -111 -121c0 -68 45 -120 111 -120z" />
    <glyph glyph-name="p" unicode="p" horiz-adv-x="424" 
d="M52 -212v541h61v-56c23 41 64 64 119 64c92 0 162 -74 162 -173c0 -98 -70 -172 -162 -172c-55 0 -96 23 -119 64v-268h-61zM220 46c66 0 111 49 111 118c0 70 -45 119 -111 119c-65 0 -109 -49 -109 -119c0 -69 44 -118 109 -118z" />
    <glyph glyph-name="q" unicode="q" horiz-adv-x="426" 
d="M312 -212v268c-24 -41 -65 -64 -119 -64c-92 0 -163 74 -163 172c0 99 71 173 163 173c54 0 95 -23 119 -64v56h61v-541h-61zM204 46c66 0 110 49 110 118c0 70 -44 119 -110 119s-110 -49 -110 -119c0 -69 44 -118 110 -118z" />
    <glyph glyph-name="r" unicode="r" horiz-adv-x="272" 
d="M51 0v329h61v-55c21 43 58 63 96 63c23 0 37 -4 52 -13l-21 -52c-11 6 -23 9 -41 9c-49 0 -86 -40 -86 -107v-174h-61z" />
    <glyph glyph-name="s" unicode="s" horiz-adv-x="318" 
d="M163 -8c-63 0 -111 28 -141 74l44 31c20 -33 53 -53 97 -53c42 0 66 17 66 44c0 29 -23 41 -80 57c-65 18 -104 43 -104 101c0 54 43 91 108 91c52 0 87 -19 113 -53l-41 -34c-16 21 -37 35 -71 35c-33 0 -52 -16 -52 -37c0 -29 21 -37 72 -50c70 -18 114 -47 114 -107
c0 -62 -47 -99 -125 -99z" />
    <glyph glyph-name="t" unicode="t" horiz-adv-x="247" 
d="M69 277h-43v52h43v205h61v-205h82v-52h-82v-188c0 -30 11 -44 35 -44c15 0 27 7 36 14l26 -43c-15 -14 -39 -24 -69 -24c-54 0 -89 29 -89 94v191z" />
    <glyph glyph-name="u" unicode="u" horiz-adv-x="397" 
d="M172 -8c-75 0 -126 45 -126 135v202h61v-196c0 -59 28 -86 80 -86c59 0 98 36 98 99v183h61v-329h-61v53c-22 -40 -63 -61 -113 -61z" />
    <glyph glyph-name="v" unicode="v" horiz-adv-x="352" 
d="M177 -11l-167 340h68l103 -221l98 221h63l-161 -340h-4z" />
    <glyph glyph-name="w" unicode="w" horiz-adv-x="529" 
d="M151 -11l-141 340h68l83 -212l103 222h3l106 -222l84 212h62l-142 -340h-4l-108 232l-110 -232h-4z" />
    <glyph glyph-name="x" unicode="x" horiz-adv-x="365" 
d="M148 176l-110 153h71l75 -105l77 105h66s-110 -150 -111 -150l129 -179h-71l-93 130l-95 -130h-66z" />
    <glyph glyph-name="y" unicode="y" horiz-adv-x="349" 
d="M148 27l-138 302h69l100 -230l97 230h63l-229 -541h-63z" />
    <glyph glyph-name="z" unicode="z" horiz-adv-x="329" 
d="M22 0v3l185 274h-162v52h259v-4l-185 -273h180v-52h-277z" />
    <glyph glyph-name="braceleft" unicode="{" horiz-adv-x="327" 
d="M255 -128c-63 0 -128 24 -128 141v144c0 53 -21 68 -57 68h-46v54h46c36 0 57 15 57 68v222c0 117 65 141 128 141h36v-54h-34c-41 0 -66 -19 -66 -86v-232c0 -57 -26 -78 -59 -85c33 -7 59 -30 59 -86v-155c0 -67 25 -86 66 -86h34v-54h-36z" />
    <glyph glyph-name="bar" unicode="|" horiz-adv-x="227" 
d="M82 -128v838h63v-838h-63z" />
    <glyph glyph-name="braceright" unicode="}" horiz-adv-x="327" 
d="M36 -128v54h34c41 0 67 19 67 86v155c0 56 25 78 58 85c-33 7 -58 29 -58 86v232c0 67 -26 86 -67 86h-34v54h36c63 0 128 -24 128 -141v-221c0 -53 21 -69 57 -69h46v-54h-46c-36 0 -57 -15 -57 -68v-144c0 -117 -65 -141 -128 -141h-36z" />
    <glyph glyph-name="asciitilde" unicode="~" horiz-adv-x="341" 
d="M224 222c-45 0 -73 38 -102 38c-17 0 -28 -12 -34 -36l-50 7c9 54 39 87 81 87c44 0 72 -37 102 -37c16 0 27 12 34 35l48 -7c-8 -53 -38 -87 -79 -87z" />
    <glyph glyph-name="exclamdown" unicode="&#xa1;" horiz-adv-x="214" 
d="M107 592c-24 0 -47 20 -47 47s23 47 47 47c25 0 47 -20 47 -47s-22 -47 -47 -47zM73 0l7 498h55l7 -498h-69z" />
    <glyph glyph-name="cent" unicode="&#xa2;" horiz-adv-x="361" 
d="M174 -6c-83 14 -144 82 -144 170c0 89 61 157 144 171v97h49v-96c49 -4 83 -23 111 -54l-41 -36c-17 20 -40 34 -70 37v-238c34 5 59 20 77 40l41 -35c-28 -33 -67 -53 -118 -57v-99h-49v100zM174 281c-49 -13 -81 -58 -81 -117s32 -103 81 -117v234z" />
    <glyph glyph-name="sterling" unicode="&#xa3;" horiz-adv-x="459" 
d="M124 228h-79v50h56c-12 29 -22 59 -22 94c0 82 63 149 166 149c77 0 132 -34 168 -96l-52 -30c-24 44 -62 70 -115 70c-65 0 -102 -41 -102 -96c0 -33 9 -62 21 -91h156v-50h-134c16 -36 30 -75 30 -123c0 -4 0 -9 -1 -13c31 -23 62 -44 102 -44c37 0 61 14 85 41l41 -40
c-31 -34 -70 -57 -124 -57s-91 25 -122 51c-19 -29 -52 -51 -94 -51c-52 0 -89 32 -89 78s37 76 85 76c22 0 41 -6 58 -15c-5 35 -19 66 -34 97zM156 79c-17 13 -34 22 -53 22c-21 0 -36 -12 -36 -32s16 -32 37 -32c29 0 46 18 52 42z" />
    <glyph glyph-name="fraction" unicode="&#x2044;" horiz-adv-x="344" 
d="M-14 0l309 513h63l-309 -513h-63z" />
    <glyph glyph-name="fraction" unicode="&#x2215;" horiz-adv-x="344" 
d="M-14 0l309 513h63l-309 -513h-63z" />
    <glyph glyph-name="yen" unicode="&#xa5;" horiz-adv-x="529" 
d="M228 181l-39 65h-134v48h105l-131 219h71l166 -284l167 284h67l-132 -219h103v-48h-131l-39 -65h170v-48h-175v-133h-64v133h-177v48h173z" />
    <glyph glyph-name="florin" unicode="&#x192;" horiz-adv-x="324" 
d="M95 212c1 0 -58 0 -58 0v52h64l17 150c9 74 49 107 105 107c44 0 67 -17 87 -42l-39 -38c-11 15 -22 26 -44 26c-24 0 -43 -12 -48 -55l-17 -148h83v-52h-89l-47 -424h-61z" />
    <glyph glyph-name="section" unicode="&#xa7;" horiz-adv-x="485" 
d="M99 301c-14 21 -22 47 -22 77c0 86 64 143 159 143c88 0 138 -41 169 -91l-50 -31c-20 35 -54 67 -119 67c-60 0 -97 -35 -97 -85c0 -52 25 -72 82 -95l117 -45c83 -32 122 -80 122 -145c0 -49 -32 -84 -78 -104c16 -21 25 -46 25 -76c0 -77 -57 -134 -169 -134
c-89 0 -151 39 -186 88l46 36c28 -37 70 -68 140 -68c71 0 105 31 105 77c0 43 -26 67 -88 90l-110 42c-80 30 -119 72 -119 142c0 48 27 86 73 112zM349 24c32 13 50 36 50 69c0 44 -20 67 -80 90l-117 44c-29 11 -54 25 -75 42c-27 -16 -41 -42 -41 -74
c0 -47 23 -69 76 -90l112 -42c28 -10 54 -23 75 -39z" />
    <glyph glyph-name="quotesingle" unicode="'" horiz-adv-x="142" 
d="M45 509l-8 171h68l-8 -171h-52z" />
    <glyph glyph-name="quotedblleft" unicode="&#x201c;" horiz-adv-x="309" 
d="M222 517c-23 0 -45 20 -45 45c0 14 5 27 12 39l44 79h34l-28 -75c15 -6 29 -21 29 -42c0 -26 -22 -46 -46 -46zM87 517c-24 0 -46 20 -46 45c0 14 5 27 12 39l44 79h34l-28 -75c15 -6 30 -21 30 -42c0 -26 -22 -46 -46 -46z" />
    <glyph glyph-name="guillemotleft" unicode="&#xab;" horiz-adv-x="333" 
d="M238 32l-77 130v4l77 127h65l-77 -129l77 -132h-65zM107 32l-77 130v4l77 127h66l-77 -129l77 -132h-66z" />
    <glyph glyph-name="guilsinglleft" unicode="&#x2039;" horiz-adv-x="203" 
d="M107 32l-77 130v4l77 127h66l-77 -129l77 -132h-66z" />
    <glyph glyph-name="guilsinglright" unicode="&#x203a;" horiz-adv-x="203" 
d="M30 32l77 130l-77 131h66l77 -129v-4l-77 -128h-66z" />
    <glyph glyph-name="endash" unicode="&#x2013;" horiz-adv-x="393" 
d="M36 162v55h321v-55h-321z" />
    <glyph glyph-name="dagger" unicode="&#x2020;" horiz-adv-x="262" 
d="M101 535h-73v53h73v92h59v-92h74v-53h-74v-219h-59v219z" />
    <glyph glyph-name="daggerdbl" unicode="&#x2021;" horiz-adv-x="262" 
d="M101 536h-73v52h73v92h59v-92h74v-52h-74v-76h74v-52h-74v-92h-59v92h-73v52h73v76z" />
    <glyph glyph-name="periodcentered" unicode="&#xb7;" 
d="M86 169c-25 0 -47 20 -47 47s22 47 47 47c24 0 47 -20 47 -47s-23 -47 -47 -47z" />
    <glyph glyph-name="periodcentered" unicode="&#x2219;" 
d="M86 169c-25 0 -47 20 -47 47s22 47 47 47c24 0 47 -20 47 -47s-23 -47 -47 -47z" />
    <glyph glyph-name="paragraph" unicode="&#xb6;" horiz-adv-x="546" 
d="M290 316h-67c-113 0 -188 82 -188 182c0 99 75 182 188 182h269v-680h-63v623h-76v-623h-63v316zM290 373v250h-66c-76 0 -121 -50 -121 -125c0 -76 45 -125 121 -125h66z" />
    <glyph glyph-name="bullet" unicode="&#x2022;" horiz-adv-x="251" 
d="M125 156c-44 0 -81 36 -81 82c0 47 37 82 81 82s82 -35 82 -82c0 -46 -38 -82 -82 -82z" />
    <glyph glyph-name="quotesinglbase" unicode="&#x201a;" horiz-adv-x="174" 
d="M43 -77l28 75c-15 5 -30 21 -30 42c0 26 22 46 46 46s46 -20 46 -46c0 -13 -5 -26 -12 -38l-44 -79h-34z" />
    <glyph glyph-name="quotedblbase" unicode="&#x201e;" horiz-adv-x="309" 
d="M179 -77l27 75c-14 5 -29 21 -29 42c0 26 22 46 46 46c23 0 45 -20 45 -46c0 -13 -4 -26 -12 -38l-44 -79h-33zM43 -77l28 75c-15 5 -30 21 -30 42c0 26 22 46 46 46s46 -20 46 -46c0 -13 -5 -26 -12 -38l-44 -79h-34z" />
    <glyph glyph-name="quotedblright" unicode="&#x201d;" horiz-adv-x="309" 
d="M179 525l27 75c-14 5 -29 21 -29 42c0 26 22 45 46 45c23 0 45 -19 45 -45c0 -14 -4 -26 -12 -38l-44 -79h-33zM43 525l28 75c-15 5 -30 21 -30 42c0 26 22 45 46 45s46 -19 46 -45c0 -14 -5 -26 -12 -38l-44 -79h-34z" />
    <glyph glyph-name="guillemotright" unicode="&#xbb;" horiz-adv-x="333" 
d="M161 32l77 130l-77 131h65l77 -129v-4l-77 -128h-65zM30 32l77 130l-77 131h66l77 -129v-4l-77 -128h-66z" />
    <glyph glyph-name="ellipsis" unicode="&#x2026;" horiz-adv-x="513" 
d="M427 -6c-24 0 -47 20 -47 47s23 47 47 47c25 0 47 -20 47 -47s-22 -47 -47 -47zM256 -6c-24 0 -46 20 -46 47s22 47 46 47c25 0 47 -20 47 -47s-22 -47 -47 -47zM86 -6c-25 0 -47 20 -47 47s22 47 47 47c24 0 47 -20 47 -47s-23 -47 -47 -47z" />
    <glyph glyph-name="perthousand" unicode="&#x2030;" horiz-adv-x="1052" 
d="M170 233c-77 0 -145 61 -145 144c0 84 68 144 145 144s146 -60 146 -144c0 -83 -69 -144 -146 -144zM173 0l309 513h64l-309 -513h-64zM881 -8c-76 0 -145 60 -145 144c0 83 69 144 145 144c77 0 146 -61 146 -144c0 -84 -69 -144 -146 -144zM550 -8
c-77 0 -146 60 -146 144c0 83 69 144 146 144c76 0 145 -61 145 -144c0 -84 -69 -144 -145 -144zM170 286c48 0 88 37 88 91c0 55 -40 91 -88 91s-88 -36 -88 -91c0 -54 40 -91 88 -91zM881 45c48 0 88 36 88 91c0 54 -40 91 -88 91s-88 -37 -88 -91c0 -55 40 -91 88 -91z
M550 45c48 0 88 36 88 91c0 54 -40 91 -88 91s-88 -37 -88 -91c0 -55 40 -91 88 -91z" />
    <glyph glyph-name="questiondown" unicode="&#xbf;" horiz-adv-x="443" 
d="M247 592c-24 0 -47 20 -47 47s23 47 47 47s47 -20 47 -47s-23 -47 -47 -47zM234 -8c-117 0 -191 78 -191 185c0 101 67 175 174 185v139h59v-192h-29c-91 0 -139 -61 -139 -132c0 -79 50 -129 126 -129c67 0 106 36 135 88l50 -29c-32 -65 -94 -115 -185 -115z" />
    <glyph glyph-name="grave" unicode="`" horiz-adv-x="500" 
d="M228 380l-76 141h69l56 -141h-49z" />
    <glyph glyph-name="acute" unicode="&#xb4;" horiz-adv-x="500" 
d="M223 380l56 141h69l-76 -141h-49z" />
    <glyph glyph-name="circumflex" unicode="&#x2c6;" horiz-adv-x="498" 
d="M138 380l109 130h3l109 -130h-50l-60 58l-61 -58h-50z" />
    <glyph glyph-name="tilde" unicode="&#x2dc;" horiz-adv-x="498" 
d="M294 377c-41 0 -62 36 -87 36c-16 0 -22 -12 -28 -35l-44 7c8 48 31 79 69 79c41 0 62 -35 87 -35c16 0 22 11 28 34l44 -7c-8 -48 -31 -79 -69 -79z" />
    <glyph glyph-name="macron" unicode="&#xaf;" horiz-adv-x="498" 
d="M164 394v49h170v-49h-170z" />
    <glyph glyph-name="macron" unicode="&#x2c9;" horiz-adv-x="498" 
d="M164 394v49h170v-49h-170z" />
    <glyph glyph-name="breve" unicode="&#x2d8;" horiz-adv-x="499" 
d="M249 370c-57 0 -95 36 -106 83l50 11c8 -26 26 -43 56 -43s48 17 56 43l51 -11c-12 -47 -50 -83 -107 -83z" />
    <glyph glyph-name="dotaccent" unicode="&#x2d9;" horiz-adv-x="500" 
d="M250 387c-20 0 -39 17 -39 39s19 39 39 39s39 -17 39 -39s-19 -39 -39 -39z" />
    <glyph glyph-name="dieresis" unicode="&#xa8;" horiz-adv-x="500" 
d="M315 384c-20 0 -39 17 -39 39s19 39 39 39s39 -17 39 -39s-19 -39 -39 -39zM185 384c-20 0 -39 17 -39 39s19 39 39 39s39 -17 39 -39s-19 -39 -39 -39z" />
    <glyph glyph-name="ring" unicode="&#x2da;" horiz-adv-x="498" 
d="M249 375c-45 0 -82 36 -82 79s37 80 82 80s82 -37 82 -80s-37 -79 -82 -79zM249 412c23 0 40 16 40 42c0 25 -17 42 -40 42s-40 -17 -40 -42c0 -26 17 -42 40 -42z" />
    <glyph glyph-name="cedilla" unicode="&#xb8;" horiz-adv-x="502" 
d="M254 -193c-43 0 -70 21 -83 46l38 22c7 -15 18 -26 41 -26c17 0 33 10 33 32c0 21 -13 35 -39 35h-19v84h42v-49c36 -4 64 -30 64 -74c0 -45 -37 -70 -77 -70z" />
    <glyph glyph-name="hungarumlaut" unicode="&#x2dd;" horiz-adv-x="500" 
d="M275 380l54 141h63l-68 -141h-49zM167 380l53 141h63l-67 -141h-49z" />
    <glyph glyph-name="ogonek" unicode="&#x2db;" horiz-adv-x="502" 
d="M237 -193c-40 0 -78 24 -78 70c0 33 17 63 34 88l25 35h45l-28 -45c-18 -29 -27 -52 -27 -75c0 -21 14 -31 32 -31c21 0 33 14 40 28l36 -24c-13 -25 -38 -46 -79 -46z" />
    <glyph glyph-name="caron" unicode="&#x2c7;" horiz-adv-x="498" 
d="M248 377l-109 130h50l60 -58l61 58h50l-109 -130h-3z" />
    <glyph glyph-name="emdash" unicode="&#x2014;" horiz-adv-x="619" 
d="M36 162v55h547v-55h-547z" />
    <glyph glyph-name="AE" unicode="&#xc6;" horiz-adv-x="934" 
d="M22 0l451 680h396v-58h-345v-340h308v-58h-308v-166h359v-58h-424v118h-292l-77 -118h-68zM206 176h253v383z" />
    <glyph glyph-name="ordfeminine" unicode="&#xaa;" horiz-adv-x="334" 
d="M236 396v3c0 59 -26 74 -68 74c-45 0 -67 -21 -85 -43l-35 31c24 35 61 60 124 60c68 0 122 -34 122 -121v-182h-58v34c-19 -26 -52 -41 -93 -41c-62 0 -113 30 -113 95c0 61 53 90 117 90h89zM236 352h-85c-35 0 -63 -14 -63 -46c0 -33 24 -48 64 -48c45 0 84 21 84 62
v32z" />
    <glyph glyph-name="Lslash" unicode="&#x141;" horiz-adv-x="502" 
d="M152 214v-156h316v-58h-381v192l-71 -23v55l71 23v433h65v-412l196 65v-55z" />
    <glyph glyph-name="Oslash" unicode="&#xd8;" horiz-adv-x="782" 
d="M658 569c51 -60 82 -139 82 -229c0 -201 -156 -348 -349 -348c-87 0 -167 30 -228 82l-84 -84l-38 37l84 84c-52 60 -83 139 -83 229c0 201 156 348 349 348c88 0 167 -30 229 -82l83 83l38 -37zM169 155l407 407c-48 42 -112 67 -185 67c-162 0 -282 -124 -282 -289
c0 -72 22 -136 60 -185zM613 524l-407 -407c48 -41 112 -66 185 -66c162 0 282 124 282 289c0 72 -22 135 -60 184z" />
    <glyph glyph-name="OE" unicode="&#x152;" horiz-adv-x="963" 
d="M401 0c-226 0 -359 139 -359 340s132 340 359 340h497v-58h-345v-340h308v-58h-308v-166h359v-58h-511zM406 59h81v562h-81c-201 0 -296 -116 -296 -281s95 -281 296 -281z" />
    <glyph glyph-name="ordmasculine" unicode="&#xba;" horiz-adv-x="372" 
d="M187 211c-88 0 -158 66 -158 155s70 155 158 155c87 0 158 -66 158 -155s-71 -155 -158 -155zM187 259c58 0 98 45 98 107s-40 107 -98 107c-59 0 -98 -45 -98 -107s39 -107 98 -107z" />
    <glyph glyph-name="ae" unicode="&#xe6;" horiz-adv-x="624" 
d="M297 268c26 42 72 69 130 69c105 0 168 -80 167 -191h-276c7 -63 51 -102 116 -102c51 0 81 18 103 43l38 -37c-30 -36 -75 -58 -140 -58c-66 0 -115 29 -142 75c-26 -60 -85 -75 -137 -75c-69 0 -125 34 -125 104c0 69 58 100 128 100h100v6c0 61 -30 83 -77 83
c-42 0 -70 -16 -93 -47l-39 34c33 44 77 65 134 65c55 0 95 -22 113 -69zM320 196h209c-8 48 -39 89 -102 89c-56 0 -96 -35 -107 -89zM259 146h-96c-39 0 -71 -10 -71 -51c0 -34 28 -53 74 -53c49 0 93 28 93 73v31z" />
    <glyph glyph-name="dotlessi" unicode="&#x131;" horiz-adv-x="170" 
d="M54 0v329h62v-329h-62z" />
    <glyph glyph-name="lslash" unicode="&#x142;" horiz-adv-x="195" 
d="M128 221v-221h-61v185l-56 -33v57l56 33v468h61v-432l60 35v-57z" />
    <glyph glyph-name="oslash" unicode="&#xf8;" horiz-adv-x="409" 
d="M348 265c20 -28 31 -63 31 -101c0 -98 -77 -172 -174 -172c-45 0 -85 15 -116 41c1 1 -48 -43 -48 -43l-28 31s25 22 48 43c-19 28 -31 62 -31 100c0 99 77 173 175 173c44 0 84 -15 114 -41l49 44l28 -32zM104 103c1 0 175 157 175 157c-19 16 -44 26 -74 26
c-68 0 -113 -52 -113 -122c0 -23 4 -43 12 -61zM305 226l-175 -156c19 -17 45 -27 75 -27c67 0 113 52 113 121c0 23 -5 44 -13 62z" />
    <glyph glyph-name="oe" unicode="&#x153;" horiz-adv-x="686" 
d="M347 72c-28 -49 -79 -80 -142 -80c-98 0 -175 74 -175 172c0 99 77 173 175 173c63 0 114 -32 142 -82c28 50 79 82 142 82c105 0 169 -82 167 -195h-276c9 -61 51 -98 115 -98c51 0 81 18 103 43l38 -37c-30 -36 -75 -58 -140 -58c-69 0 -121 31 -149 80zM382 193h210
c-8 52 -41 92 -103 92c-57 0 -97 -36 -107 -92zM205 44c66 0 111 52 111 120c0 69 -45 121 -111 121s-111 -52 -111 -121c0 -68 45 -120 111 -120z" />
    <glyph glyph-name="germandbls" unicode="&#xdf;" horiz-adv-x="426" 
d="M286 -8c-62 0 -103 27 -129 65l42 31c17 -26 42 -46 84 -46c39 0 58 18 58 45c0 36 -20 43 -71 59c-52 16 -93 40 -93 99c0 50 32 77 71 89v243c0 57 -24 88 -68 88c-45 0 -68 -27 -68 -85v-580h-61v581c0 95 62 137 129 137c71 0 128 -46 128 -142v-282
c-54 -5 -74 -21 -74 -46c0 -26 23 -39 67 -51c54 -16 99 -40 99 -107c0 -56 -32 -98 -114 -98z" />
    <glyph glyph-name="onesuperior" unicode="&#xb9;" 
d="M86 169c-25 0 -47 20 -47 47s22 47 47 47c24 0 47 -20 47 -47s-23 -47 -47 -47z" />
    <glyph glyph-name="logicalnot" unicode="&#xac;" 
d="M86 169c-25 0 -47 20 -47 47s22 47 47 47c24 0 47 -20 47 -47s-23 -47 -47 -47z" />
    <glyph glyph-name="mu" unicode="&#xb5;" 
d="M86 169c-25 0 -47 20 -47 47s22 47 47 47c24 0 47 -20 47 -47s-23 -47 -47 -47z" />
    <glyph glyph-name="mu" unicode="&#x3bc;" 
d="M86 169c-25 0 -47 20 -47 47s22 47 47 47c24 0 47 -20 47 -47s-23 -47 -47 -47z" />
    <glyph glyph-name="trademark" unicode="&#x2122;" horiz-adv-x="518" 
d="M241 458v225h4l108 -117l108 117h4v-225h-44v130l-68 -78l-67 78v-130h-45zM92 641h-63v39h169v-39h-61v-183h-45v183z" />
    <glyph glyph-name="Eth" unicode="&#xd0;" horiz-adv-x="658" 
d="M87 225h-71v57h71v398h170c225 0 359 -139 359 -340s-133 -340 -359 -340h-170v225zM152 282h178v-57h-178v-166h99c201 0 297 116 297 281s-96 281 -297 281h-99v-339z" />
    <glyph glyph-name="onehalf" unicode="&#xbd;" 
d="M86 169c-25 0 -47 20 -47 47s22 47 47 47c24 0 47 -20 47 -47s-23 -47 -47 -47z" />
    <glyph glyph-name="plusminus" horiz-adv-x="579" 
d="M266 329v257c0 88 61 132 130 132c74 0 129 -44 129 -133v-585h-61v583c0 53 -23 82 -68 82s-69 -27 -69 -80v-256h75v-52h-75v-277h-61v277h-136v-277h-61v277h-43v52h43v283c0 72 39 106 92 106c35 0 60 -11 77 -28l-34 -41c-8 9 -18 15 -36 15c-22 0 -38 -14 -38 -54
v-281h136z" />
    <glyph glyph-name="Thorn" unicode="&#xde;" horiz-adv-x="552" 
d="M152 600h81c184 0 280 -108 280 -255s-96 -255 -280 -255h-81v-90h-65v680h65v-80zM152 148h77c155 0 217 83 217 197s-62 197 -217 197h-77v-394z" />
    <glyph glyph-name="onequarter" unicode="&#xbc;" 
d="M86 169c-25 0 -47 20 -47 47s22 47 47 47c24 0 47 -20 47 -47s-23 -47 -47 -47z" />
    <glyph glyph-name="divide" unicode="&#xf7;" 
d="M86 169c-25 0 -47 20 -47 47s22 47 47 47c24 0 47 -20 47 -47s-23 -47 -47 -47z" />
    <glyph glyph-name="brokenbar" unicode="&#xa6;" 
d="M86 169c-25 0 -47 20 -47 47s22 47 47 47c24 0 47 -20 47 -47s-23 -47 -47 -47z" />
    <glyph glyph-name="degree" unicode="&#xb0;" horiz-adv-x="300" 
d="M151 311c-59 0 -108 47 -108 105c0 59 49 104 108 104s107 -45 107 -104c0 -58 -48 -105 -107 -105zM151 354c35 0 60 26 60 62c0 35 -25 62 -60 62s-60 -27 -60 -62c0 -36 25 -62 60 -62z" />
    <glyph glyph-name="thorn" unicode="&#xfe;" horiz-adv-x="425" 
d="M52 -212v922h62v-437c23 41 64 64 119 64c92 0 162 -74 162 -173c0 -98 -70 -172 -162 -172c-55 0 -96 23 -119 64v-268h-62zM221 46c66 0 111 49 111 118c0 70 -45 119 -111 119c-65 0 -109 -49 -109 -119c0 -69 44 -118 109 -118z" />
    <glyph glyph-name="threequarters" unicode="&#xbe;" 
d="M86 169c-25 0 -47 20 -47 47s22 47 47 47c24 0 47 -20 47 -47s-23 -47 -47 -47z" />
    <glyph glyph-name="twosuperior" unicode="&#xb2;" 
d="M86 169c-25 0 -47 20 -47 47s22 47 47 47c24 0 47 -20 47 -47s-23 -47 -47 -47z" />
    <glyph glyph-name="registered" unicode="&#xae;" horiz-adv-x="378" 
d="M188 375c-87 0 -158 66 -158 156c0 91 71 157 158 157c88 0 160 -66 160 -157c0 -90 -72 -156 -160 -156zM188 403c75 0 130 52 130 128c0 78 -55 131 -130 131c-74 0 -128 -53 -128 -131c0 -76 54 -128 128 -128zM226 496l34 -52h-40l-29 43h-7h-19v-43h-37v178h56
c53 0 78 -31 78 -68c0 -26 -13 -47 -36 -58zM165 516h18c30 0 42 14 42 37s-12 38 -42 38h-18v-75z" />
    <glyph glyph-name="minus" unicode="&#x2212;" 
d="M86 169c-25 0 -47 20 -47 47s22 47 47 47c24 0 47 -20 47 -47s-23 -47 -47 -47z" />
    <glyph glyph-name="eth" unicode="&#xf0;" horiz-adv-x="409" 
d="M207 536l-56 -47l-29 33l57 48c-27 31 -57 61 -90 90l30 40c37 -28 71 -60 102 -95l56 47l29 -33l-56 -47c78 -98 129 -221 129 -376c0 -139 -76 -204 -174 -204s-175 74 -175 172c0 100 76 173 165 173c56 0 93 -23 117 -65c-12 107 -49 191 -105 264zM205 44
c66 0 111 52 111 120c0 69 -45 121 -111 121s-111 -52 -111 -121c0 -68 45 -120 111 -120z" />
    <glyph glyph-name="multiply" unicode="&#xd7;" 
d="M86 169c-25 0 -47 20 -47 47s22 47 47 47c24 0 47 -20 47 -47s-23 -47 -47 -47z" />
    <glyph glyph-name="threesuperior" unicode="&#xb3;" 
d="M86 169c-25 0 -47 20 -47 47s22 47 47 47c24 0 47 -20 47 -47s-23 -47 -47 -47z" />
    <glyph glyph-name="copyright" unicode="&#xa9;" horiz-adv-x="604" 
d="M302 -7c-144 0 -265 112 -265 264c0 153 121 264 265 264s265 -111 265 -264c0 -152 -121 -264 -265 -264zM302 30c126 0 225 97 225 227c0 131 -99 227 -225 227s-225 -96 -225 -227c0 -130 99 -227 225 -227zM303 92c-92 0 -163 71 -163 165c0 95 71 166 162 166
c56 0 95 -18 124 -51l-40 -37c-20 22 -47 35 -83 35c-61 0 -101 -49 -101 -113s40 -113 101 -113c41 0 71 18 91 39l40 -36c-30 -35 -72 -55 -131 -55z" />
    <glyph glyph-name="Aacute" unicode="&#xc1;" horiz-adv-x="638" 
d="M143 118l-48 -118h-65l286 696h5l287 -696h-67l-47 118h-351zM470 176c1 0 -151 377 -151 377l-153 -377h304zM296 735l56 141h69l-76 -141h-49z" />
    <glyph glyph-name="Acircumflex" unicode="&#xc2;" horiz-adv-x="638" 
d="M143 118l-48 -118h-65l286 696h5l287 -696h-67l-47 118h-351zM470 176c1 0 -151 377 -151 377l-153 -377h304zM208 735l109 130h3l109 -130h-50l-60 58l-61 -58h-50z" />
    <glyph glyph-name="Adieresis" unicode="&#xc4;" horiz-adv-x="638" 
d="M465 610c-20 0 -39 16 -39 39c0 22 19 38 39 38s39 -16 39 -38c0 -23 -19 -39 -39 -39zM175 610c-20 0 -39 16 -39 39c0 22 19 38 39 38s39 -16 39 -38c0 -23 -19 -39 -39 -39zM143 118l-48 -118h-65l286 696h5l287 -696h-67l-47 118h-351zM470 176
c1 0 -151 377 -151 377l-153 -377h304z" />
    <glyph glyph-name="Agrave" unicode="&#xc0;" horiz-adv-x="638" 
d="M143 118l-48 -118h-65l286 696h5l287 -696h-67l-47 118h-351zM470 176c1 0 -151 377 -151 377l-153 -377h304zM295 735l-76 141h69l56 -141h-49z" />
    <glyph glyph-name="Aring" unicode="&#xc5;" horiz-adv-x="638" 
d="M494 118h-351l-48 -118h-65l273 664c-37 7 -67 40 -67 78c0 44 38 80 83 80s82 -36 82 -80c0 -38 -29 -70 -67 -78l274 -664h-67zM319 700c23 0 39 17 39 42s-16 43 -39 43s-40 -18 -40 -43s17 -42 40 -42zM166 176h304c1 0 -151 377 -151 377z" />
    <glyph glyph-name="Atilde" unicode="&#xc3;" horiz-adv-x="638" 
d="M143 118l-48 -118h-65l286 696h5l287 -696h-67l-47 118h-351zM470 176c1 0 -151 377 -151 377l-153 -377h304zM364 732c-41 0 -62 36 -87 36c-16 0 -22 -12 -28 -35l-44 7c8 48 31 79 69 79c41 0 62 -35 87 -35c16 0 22 11 28 34l44 -7c-8 -48 -31 -79 -69 -79z" />
    <glyph glyph-name="Ccedilla" unicode="&#xc7;" horiz-adv-x="708" 
d="M359 -7c-181 14 -318 155 -317 347c0 202 151 348 344 348c115 0 206 -47 267 -127l-50 -36c-51 66 -123 104 -218 104c-158 0 -275 -124 -275 -289c0 -167 119 -289 280 -289c98 0 177 41 231 113l51 -36c-65 -85 -155 -133 -271 -136v-41c36 -4 64 -30 64 -74
c0 -45 -37 -70 -77 -70c-43 0 -70 21 -83 46l38 22c7 -15 18 -26 41 -26c17 0 33 10 33 32c0 21 -13 35 -39 35h-19v77z" />
    <glyph glyph-name="Eacute" unicode="&#xc9;" horiz-adv-x="562" 
d="M87 0v680h410v-58h-345v-340h308v-57h-308v-167h359v-58h-424zM270 735l56 141h69l-76 -141h-49z" />
    <glyph glyph-name="Ecircumflex" unicode="&#xca;" horiz-adv-x="562" 
d="M87 0v680h410v-58h-345v-340h308v-57h-308v-167h359v-58h-424zM188 735l109 130h3l109 -130h-50l-60 58l-61 -58h-50z" />
    <glyph glyph-name="Edieresis" unicode="&#xcb;" horiz-adv-x="562" 
d="M87 0v680h410v-58h-345v-340h308v-57h-308v-167h359v-58h-424zM363 739c-20 0 -39 17 -39 39s19 39 39 39s39 -17 39 -39s-19 -39 -39 -39zM233 739c-20 0 -39 17 -39 39s19 39 39 39s39 -17 39 -39s-19 -39 -39 -39z" />
    <glyph glyph-name="Egrave" unicode="&#xc8;" horiz-adv-x="562" 
d="M87 0v680h410v-58h-345v-340h308v-57h-308v-167h359v-58h-424zM280 735l-76 141h69l56 -141h-49z" />
    <glyph glyph-name="Iacute" unicode="&#xcd;" horiz-adv-x="248" 
d="M91 0v680h66v-680h-66zM97 735l56 141h69l-76 -141h-49z" />
    <glyph glyph-name="Icircumflex" unicode="&#xce;" horiz-adv-x="248" 
d="M91 0v680h66v-680h-66zM12 735l109 130h3l109 -130h-50l-60 58l-61 -58h-50z" />
    <glyph glyph-name="Idieresis" unicode="&#xcf;" horiz-adv-x="248" 
d="M91 0v680h66v-680h-66zM189 739c-20 0 -39 17 -39 39s19 39 39 39s39 -17 39 -39s-19 -39 -39 -39zM59 739c-20 0 -39 17 -39 39s19 39 39 39s39 -17 39 -39s-19 -39 -39 -39z" />
    <glyph glyph-name="Igrave" unicode="&#xcc;" horiz-adv-x="248" 
d="M91 0v680h66v-680h-66zM102 735l-76 141h69l56 -141h-49z" />
    <glyph glyph-name="Ntilde" unicode="&#xd1;" horiz-adv-x="699" 
d="M606 -14l-458 549v-535h-61v694h6l458 -549v535h61v-694h-6zM397 732c-41 0 -62 36 -87 36c-16 0 -22 -12 -28 -35l-44 7c8 48 31 79 69 79c41 0 62 -35 87 -35c16 0 22 11 28 34l44 -7c-8 -48 -31 -79 -69 -79z" />
    <glyph glyph-name="Oacute" unicode="&#xd3;" horiz-adv-x="782" 
d="M391 -8c-193 0 -349 147 -349 348s156 348 349 348s349 -147 349 -348s-156 -348 -349 -348zM391 51c162 0 281 124 281 289s-119 289 -281 289s-281 -124 -281 -289s119 -289 281 -289zM365 735l56 141h69l-76 -141h-49z" />
    <glyph glyph-name="Ocircumflex" unicode="&#xd4;" horiz-adv-x="782" 
d="M391 -8c-193 0 -349 147 -349 348s156 348 349 348s349 -147 349 -348s-156 -348 -349 -348zM391 51c162 0 281 124 281 289s-119 289 -281 289s-281 -124 -281 -289s119 -289 281 -289zM280 735l109 130h3l109 -130h-50l-60 58l-61 -58h-50z" />
    <glyph glyph-name="Odieresis" unicode="&#xd6;" horiz-adv-x="782" 
d="M708 608c-20 0 -39 17 -39 39s19 39 39 39s39 -17 39 -39s-19 -39 -39 -39zM74 608c-20 0 -39 17 -39 39s19 39 39 39s39 -17 39 -39s-19 -39 -39 -39zM391 -8c-193 0 -349 147 -349 348s156 348 349 348s349 -147 349 -348s-156 -348 -349 -348zM391 51
c162 0 281 124 281 289s-119 289 -281 289s-281 -124 -281 -289s119 -289 281 -289z" />
    <glyph glyph-name="Ograve" unicode="&#xd2;" horiz-adv-x="782" 
d="M391 -8c-193 0 -349 147 -349 348s156 348 349 348s349 -147 349 -348s-156 -348 -349 -348zM391 51c162 0 281 124 281 289s-119 289 -281 289s-281 -124 -281 -289s119 -289 281 -289zM370 735l-76 141h69l56 -141h-49z" />
    <glyph glyph-name="Otilde" unicode="&#xd5;" horiz-adv-x="782" 
d="M391 -8c-193 0 -349 147 -349 348s156 348 349 348s349 -147 349 -348s-156 -348 -349 -348zM391 51c162 0 281 124 281 289s-119 289 -281 289s-281 -124 -281 -289s119 -289 281 -289zM436 732c-41 0 -62 36 -87 36c-16 0 -22 -12 -28 -35l-44 7c8 48 31 79 69 79
c41 0 62 -35 87 -35c16 0 22 11 28 34l44 -7c-8 -48 -31 -79 -69 -79z" />
    <glyph glyph-name="Scaron" unicode="&#x160;" horiz-adv-x="525" 
d="M29 129l55 29c36 -68 98 -107 178 -107c93 0 148 46 148 117c0 75 -46 109 -128 147l-55 26c-98 46 -157 90 -157 185c0 97 75 162 175 162c85 0 144 -32 186 -100l-50 -32c-31 51 -73 75 -135 75c-67 0 -112 -43 -112 -103c0 -65 37 -89 120 -128l55 -26
c109 -52 166 -102 166 -204c0 -112 -85 -178 -212 -178c-111 0 -190 54 -234 137zM244 732l-109 130h50l60 -58l61 58h50l-109 -130h-3z" />
    <glyph glyph-name="Uacute" unicode="&#xda;" horiz-adv-x="644" 
d="M322 -8c-137 0 -240 81 -240 239v449h65v-444c0 -123 69 -185 175 -185c107 0 175 62 175 185v444h65v-449c0 -158 -103 -239 -240 -239zM295 735l56 141h69l-76 -141h-49z" />
    <glyph glyph-name="Ucircumflex" unicode="&#xdb;" horiz-adv-x="644" 
d="M322 -8c-137 0 -240 81 -240 239v449h65v-444c0 -123 69 -185 175 -185c107 0 175 62 175 185v444h65v-449c0 -158 -103 -239 -240 -239zM210 735l109 130h3l109 -130h-50l-60 58l-61 -58h-50z" />
    <glyph glyph-name="Udieresis" unicode="&#xdc;" horiz-adv-x="644" 
d="M387 608c-20 0 -39 17 -39 39s19 39 39 39s39 -17 39 -39s-19 -39 -39 -39zM257 608c-20 0 -39 17 -39 39s19 39 39 39s39 -17 39 -39s-19 -39 -39 -39zM322 -8c-137 0 -240 81 -240 239v449h65v-444c0 -123 69 -185 175 -185c107 0 175 62 175 185v444h65v-449
c0 -158 -103 -239 -240 -239z" />
    <glyph glyph-name="Ugrave" unicode="&#xd9;" horiz-adv-x="644" 
d="M322 -8c-137 0 -240 81 -240 239v449h65v-444c0 -123 69 -185 175 -185c107 0 175 62 175 185v444h65v-449c0 -158 -103 -239 -240 -239zM300 735l-76 141h69l56 -141h-49z" />
    <glyph glyph-name="Yacute" unicode="&#xdd;" horiz-adv-x="630" 
d="M284 213l-257 467h72l219 -401l218 401h68l-254 -467v-213h-66v213zM292 735l56 141h69l-76 -141h-49z" />
    <glyph glyph-name="Ydieresis" unicode="&#x178;" horiz-adv-x="630" 
d="M384 677c-20 0 -39 17 -39 39s19 39 39 39s39 -17 39 -39s-19 -39 -39 -39zM254 677c-20 0 -39 17 -39 39s19 39 39 39s39 -17 39 -39s-19 -39 -39 -39zM284 213l-257 467h72l219 -401l218 401h68l-254 -467v-213h-66v213z" />
    <glyph glyph-name="Zcaron" unicode="&#x17d;" horiz-adv-x="574" 
d="M32 0v4l396 618h-347v58h453v-4l-396 -618h398v-58h-504zM300 732l-109 130h50l60 -58l61 58h50l-109 -130h-3z" />
    <glyph glyph-name="aacute" unicode="&#xe1;" horiz-adv-x="369" 
d="M259 199v3c0 61 -30 83 -77 83c-42 0 -70 -16 -93 -47l-39 34c33 44 77 65 134 65c84 0 136 -44 136 -135v-202h-61v37c-22 -28 -58 -45 -103 -45c-69 0 -125 34 -125 106c0 67 59 101 129 101h99zM259 150h-95c-40 0 -72 -15 -72 -52s28 -56 74 -56c49 0 93 26 93 72v36
zM161 380l56 141h69l-76 -141h-49z" />
    <glyph glyph-name="acircumflex" unicode="&#xe2;" horiz-adv-x="369" 
d="M259 199v3c0 61 -30 83 -77 83c-42 0 -70 -16 -93 -47l-39 34c33 44 77 65 134 65c84 0 136 -44 136 -135v-202h-61v37c-22 -28 -58 -45 -103 -45c-69 0 -125 34 -125 106c0 67 59 101 129 101h99zM259 150h-95c-40 0 -72 -15 -72 -52s28 -56 74 -56c49 0 93 26 93 72v36
zM77 380l109 130h3l109 -130h-50l-60 58l-61 -58h-50z" />
    <glyph glyph-name="adieresis" unicode="&#xe4;" horiz-adv-x="369" 
d="M259 199v3c0 61 -30 83 -77 83c-42 0 -70 -16 -93 -47l-39 34c33 44 77 65 134 65c84 0 136 -44 136 -135v-202h-61v37c-22 -28 -58 -45 -103 -45c-69 0 -125 34 -125 106c0 67 59 101 129 101h99zM259 150h-95c-40 0 -72 -15 -72 -52s28 -56 74 -56c49 0 93 26 93 72v36
zM254 384c-20 0 -39 17 -39 39s19 39 39 39s39 -17 39 -39s-19 -39 -39 -39zM124 384c-20 0 -39 17 -39 39s19 39 39 39s39 -17 39 -39s-19 -39 -39 -39z" />
    <glyph glyph-name="agrave" unicode="&#xe0;" horiz-adv-x="369" 
d="M259 199v3c0 61 -30 83 -77 83c-42 0 -70 -16 -93 -47l-39 34c33 44 77 65 134 65c84 0 136 -44 136 -135v-202h-61v37c-22 -28 -58 -45 -103 -45c-69 0 -125 34 -125 106c0 67 59 101 129 101h99zM259 150h-95c-40 0 -72 -15 -72 -52s28 -56 74 -56c49 0 93 26 93 72v36
zM162 380l-76 141h69l56 -141h-49z" />
    <glyph glyph-name="aring" unicode="&#xe5;" horiz-adv-x="369" 
d="M259 199v3c0 61 -30 83 -77 83c-42 0 -70 -16 -93 -47l-39 34c33 44 77 65 134 65c84 0 136 -44 136 -135v-202h-61v37c-22 -28 -58 -45 -103 -45c-69 0 -125 34 -125 106c0 67 59 101 129 101h99zM259 150h-95c-40 0 -72 -15 -72 -52s28 -56 74 -56c49 0 93 26 93 72v36
zM185 375c-45 0 -82 36 -82 79s37 80 82 80s82 -37 82 -80s-37 -79 -82 -79zM185 412c23 0 40 16 40 42c0 25 -17 42 -40 42s-40 -17 -40 -42c0 -26 17 -42 40 -42z" />
    <glyph glyph-name="atilde" unicode="&#xe3;" horiz-adv-x="369" 
d="M259 199v3c0 61 -30 83 -77 83c-42 0 -70 -16 -93 -47l-39 34c33 44 77 65 134 65c84 0 136 -44 136 -135v-202h-61v37c-22 -28 -58 -45 -103 -45c-69 0 -125 34 -125 106c0 67 59 101 129 101h99zM259 150h-95c-40 0 -72 -15 -72 -52s28 -56 74 -56c49 0 93 26 93 72v36
zM228 377c-41 0 -62 36 -87 36c-16 0 -22 -12 -28 -35l-44 7c8 48 31 79 69 79c41 0 62 -35 87 -35c16 0 22 11 28 34l44 -7c-8 -48 -31 -79 -69 -79z" />
    <glyph glyph-name="ccedilla" unicode="&#xe7;" horiz-adv-x="361" 
d="M168 -5c-80 14 -138 82 -138 169c0 99 74 173 170 173c58 0 99 -19 130 -53l-41 -37c-21 23 -51 37 -89 37c-64 0 -106 -52 -106 -120c0 -67 42 -119 106 -119c45 0 76 18 97 41l41 -36c-29 -35 -71 -56 -128 -58v-41c36 -4 64 -30 64 -74c0 -45 -37 -70 -77 -70
c-43 0 -70 21 -83 46l38 22c7 -15 18 -26 41 -26c17 0 33 10 33 32c0 21 -13 35 -39 35h-19v79z" />
    <glyph glyph-name="eacute" unicode="&#xe9;" horiz-adv-x="400" 
d="M94 142c9 -61 51 -98 115 -98c51 0 81 18 103 43l38 -37c-30 -36 -75 -58 -140 -58c-107 0 -180 74 -180 172c0 99 77 173 173 173c105 0 169 -82 167 -195h-276zM96 193h210c-8 52 -41 92 -103 92c-57 0 -97 -36 -107 -92zM174 380l56 141h69l-76 -141h-49z" />
    <glyph glyph-name="ecircumflex" unicode="&#xea;" horiz-adv-x="400" 
d="M94 142c9 -61 51 -98 115 -98c51 0 81 18 103 43l38 -37c-30 -36 -75 -58 -140 -58c-107 0 -180 74 -180 172c0 99 77 173 173 173c105 0 169 -82 167 -195h-276zM96 193h210c-8 52 -41 92 -103 92c-57 0 -97 -36 -107 -92zM89 380l109 130h3l109 -130h-50l-60 58
l-61 -58h-50z" />
    <glyph glyph-name="edieresis" unicode="&#xeb;" horiz-adv-x="400" 
d="M94 142c9 -61 51 -98 115 -98c51 0 81 18 103 43l38 -37c-30 -36 -75 -58 -140 -58c-107 0 -180 74 -180 172c0 99 77 173 173 173c105 0 169 -82 167 -195h-276zM96 193h210c-8 52 -41 92 -103 92c-57 0 -97 -36 -107 -92zM265 384c-20 0 -39 17 -39 39s19 39 39 39
s39 -17 39 -39s-19 -39 -39 -39zM135 384c-20 0 -39 17 -39 39s19 39 39 39s39 -17 39 -39s-19 -39 -39 -39z" />
    <glyph glyph-name="egrave" unicode="&#xe8;" horiz-adv-x="400" 
d="M94 142c9 -61 51 -98 115 -98c51 0 81 18 103 43l38 -37c-30 -36 -75 -58 -140 -58c-107 0 -180 74 -180 172c0 99 77 173 173 173c105 0 169 -82 167 -195h-276zM96 193h210c-8 52 -41 92 -103 92c-57 0 -97 -36 -107 -92zM178 380l-76 141h69l56 -141h-49z" />
    <glyph glyph-name="iacute" unicode="&#xed;" horiz-adv-x="170" 
d="M54 0v329h62v-329h-62zM58 380l56 141h69l-76 -141h-49z" />
    <glyph glyph-name="icircumflex" unicode="&#xee;" horiz-adv-x="170" 
d="M55 0v329h62v-329h-62zM-27 380l109 130h3l109 -130h-50l-60 58l-61 -58h-50z" />
    <glyph glyph-name="idieresis" unicode="&#xef;" horiz-adv-x="170" 
d="M54 0v329h62v-329h-62zM150 384c-20 0 -39 17 -39 39s19 39 39 39s39 -17 39 -39s-19 -39 -39 -39zM20 384c-20 0 -39 17 -39 39s19 39 39 39s39 -17 39 -39s-19 -39 -39 -39z" />
    <glyph glyph-name="igrave" unicode="&#xec;" horiz-adv-x="170" 
d="M55 0v329h62v-329h-62zM63 380l-76 141h69l56 -141h-49z" />
    <glyph glyph-name="ntilde" unicode="&#xf1;" horiz-adv-x="397" 
d="M51 0v329h61v-53c21 40 63 61 113 61c72 0 126 -46 126 -135v-202h-61v196c0 58 -28 86 -80 86c-59 0 -98 -37 -98 -100v-182h-61zM243 377c-41 0 -62 36 -87 36c-16 0 -22 -12 -28 -35l-44 7c8 48 31 79 69 79c41 0 62 -35 87 -35c16 0 22 11 28 34l44 -7
c-8 -48 -31 -79 -69 -79z" />
    <glyph glyph-name="oacute" unicode="&#xf3;" horiz-adv-x="409" 
d="M205 -8c-98 0 -175 74 -175 172c0 99 77 173 175 173c97 0 174 -74 174 -173c0 -98 -77 -172 -174 -172zM205 44c66 0 111 52 111 120c0 69 -45 121 -111 121s-111 -52 -111 -121c0 -68 45 -120 111 -120zM178 380l56 141h69l-76 -141h-49z" />
    <glyph glyph-name="ocircumflex" unicode="&#xf4;" horiz-adv-x="409" 
d="M205 -8c-98 0 -175 74 -175 172c0 99 77 173 175 173c97 0 174 -74 174 -173c0 -98 -77 -172 -174 -172zM205 44c66 0 111 52 111 120c0 69 -45 121 -111 121s-111 -52 -111 -121c0 -68 45 -120 111 -120zM93 380l109 130h3l109 -130h-50l-60 58l-61 -58h-50z" />
    <glyph glyph-name="odieresis" unicode="&#xf6;" horiz-adv-x="409" 
d="M205 -8c-98 0 -175 74 -175 172c0 99 77 173 175 173c97 0 174 -74 174 -173c0 -98 -77 -172 -174 -172zM205 44c66 0 111 52 111 120c0 69 -45 121 -111 121s-111 -52 -111 -121c0 -68 45 -120 111 -120zM270 384c-20 0 -39 17 -39 39s19 39 39 39s39 -17 39 -39
s-19 -39 -39 -39zM140 384c-20 0 -39 17 -39 39s19 39 39 39s39 -17 39 -39s-19 -39 -39 -39z" />
    <glyph glyph-name="ograve" unicode="&#xf2;" horiz-adv-x="409" 
d="M205 -8c-98 0 -175 74 -175 172c0 99 77 173 175 173c97 0 174 -74 174 -173c0 -98 -77 -172 -174 -172zM205 44c66 0 111 52 111 120c0 69 -45 121 -111 121s-111 -52 -111 -121c0 -68 45 -120 111 -120zM183 380l-76 141h69l56 -141h-49z" />
    <glyph glyph-name="otilde" unicode="&#xf5;" horiz-adv-x="409" 
d="M205 -8c-98 0 -175 74 -175 172c0 99 77 173 175 173c97 0 174 -74 174 -173c0 -98 -77 -172 -174 -172zM205 44c66 0 111 52 111 120c0 69 -45 121 -111 121s-111 -52 -111 -121c0 -68 45 -120 111 -120zM249 377c-41 0 -62 36 -87 36c-16 0 -22 -12 -28 -35l-44 7
c8 48 31 79 69 79c41 0 62 -35 87 -35c16 0 22 11 28 34l44 -7c-8 -48 -31 -79 -69 -79z" />
    <glyph glyph-name="scaron" unicode="&#x161;" horiz-adv-x="318" 
d="M163 -8c-63 0 -111 28 -141 74l44 31c20 -33 53 -53 97 -53c42 0 66 17 66 44c0 29 -23 41 -80 57c-65 18 -104 43 -104 101c0 54 43 91 108 91c52 0 87 -19 113 -53l-41 -34c-16 21 -37 35 -71 35c-33 0 -52 -16 -52 -37c0 -29 21 -37 72 -50c70 -18 114 -47 114 -107
c0 -62 -47 -99 -125 -99zM152 377l-109 130h50l60 -58l61 58h50l-109 -130h-3z" />
    <glyph glyph-name="uacute" unicode="&#xfa;" horiz-adv-x="397" 
d="M172 -8c-75 0 -126 45 -126 135v202h61v-196c0 -59 28 -86 80 -86c59 0 98 36 98 99v183h61v-329h-61v53c-22 -40 -63 -61 -113 -61zM172 380l56 141h69l-76 -141h-49z" />
    <glyph glyph-name="ucircumflex" unicode="&#xfb;" horiz-adv-x="397" 
d="M172 -8c-75 0 -126 45 -126 135v202h61v-196c0 -59 28 -86 80 -86c59 0 98 36 98 99v183h61v-329h-61v53c-22 -40 -63 -61 -113 -61zM87 380l109 130h3l109 -130h-50l-60 58l-61 -58h-50z" />
    <glyph glyph-name="udieresis" unicode="&#xfc;" horiz-adv-x="397" 
d="M172 -8c-75 0 -126 45 -126 135v202h61v-196c0 -59 28 -86 80 -86c59 0 98 36 98 99v183h61v-329h-61v53c-22 -40 -63 -61 -113 -61zM264 384c-20 0 -39 17 -39 39s19 39 39 39s39 -17 39 -39s-19 -39 -39 -39zM134 384c-20 0 -39 17 -39 39s19 39 39 39s39 -17 39 -39
s-19 -39 -39 -39z" />
    <glyph glyph-name="ugrave" unicode="&#xf9;" horiz-adv-x="397" 
d="M172 -8c-75 0 -126 45 -126 135v202h61v-196c0 -59 28 -86 80 -86c59 0 98 36 98 99v183h61v-329h-61v53c-22 -40 -63 -61 -113 -61zM177 380l-76 141h69l56 -141h-49z" />
    <glyph glyph-name="yacute" unicode="&#xfd;" horiz-adv-x="349" 
d="M148 27l-138 302h69l100 -230l97 230h63l-229 -541h-63zM149 380l56 141h69l-76 -141h-49z" />
    <glyph glyph-name="ydieresis" unicode="&#xff;" horiz-adv-x="349" 
d="M148 27l-138 302h69l100 -230l97 230h63l-229 -541h-63zM241 384c-20 0 -39 17 -39 39s19 39 39 39s39 -17 39 -39s-19 -39 -39 -39zM111 384c-20 0 -39 17 -39 39s19 39 39 39s39 -17 39 -39s-19 -39 -39 -39z" />
    <glyph glyph-name="zcaron" unicode="&#x17e;" horiz-adv-x="329" 
d="M22 0v3l185 274h-162v52h259v-4l-185 -273h180v-52h-277zM168 377l-109 130h50l60 -58l61 58h50l-109 -130h-3z" />
    <glyph glyph-name=".null" horiz-adv-x="0" 
 />
    <glyph glyph-name="CR" unicode="&#xd;" horiz-adv-x="182" 
 />
    <glyph glyph-name="lessequal" unicode="&#x2264;" 
d="M86 169c-25 0 -47 20 -47 47s22 47 47 47c24 0 47 -20 47 -47s-23 -47 -47 -47z" />
    <glyph glyph-name="greaterequal" unicode="&#x2265;" 
d="M86 169c-25 0 -47 20 -47 47s22 47 47 47c24 0 47 -20 47 -47s-23 -47 -47 -47z" />
    <glyph glyph-name="partialdiff" unicode="&#x2202;" 
d="M86 169c-25 0 -47 20 -47 47s22 47 47 47c24 0 47 -20 47 -47s-23 -47 -47 -47z" />
    <glyph glyph-name="Q.alt1" horiz-adv-x="782" 
d="M410 -1c5 -4 10 -8 14 -12c53 -44 89 -78 158 -78c43 0 74 22 93 38l41 -43c-27 -28 -72 -54 -131 -54c-88 0 -150 50 -201 94c-45 39 -94 78 -155 78c-48 0 -86 -23 -112 -56l-43 39c24 30 55 54 97 65c-79 60 -129 156 -129 270c0 201 156 348 349 348
s349 -147 349 -348c0 -194 -143 -332 -330 -341zM391 54c162 0 281 121 281 286c0 166 -119 289 -281 289s-281 -123 -281 -289c0 -165 119 -286 281 -286z" />
    <glyph glyph-name="product" unicode="&#x220f;" 
d="M86 169c-25 0 -47 20 -47 47s22 47 47 47c24 0 47 -20 47 -47s-23 -47 -47 -47z" />
    <glyph glyph-name="pi" unicode="&#x3c0;" 
d="M86 169c-25 0 -47 20 -47 47s22 47 47 47c24 0 47 -20 47 -47s-23 -47 -47 -47z" />
    <glyph glyph-name="integral" unicode="&#x222b;" 
d="M86 169c-25 0 -47 20 -47 47s22 47 47 47c24 0 47 -20 47 -47s-23 -47 -47 -47z" />
    <glyph glyph-name="Omega" unicode="&#x3a9;" 
d="M86 169c-25 0 -47 20 -47 47s22 47 47 47c24 0 47 -20 47 -47s-23 -47 -47 -47z" />
    <glyph glyph-name="Omega" unicode="&#x2126;" 
d="M86 169c-25 0 -47 20 -47 47s22 47 47 47c24 0 47 -20 47 -47s-23 -47 -47 -47z" />
    <glyph glyph-name="radical" unicode="&#x221a;" 
d="M86 169c-25 0 -47 20 -47 47s22 47 47 47c24 0 47 -20 47 -47s-23 -47 -47 -47z" />
    <glyph glyph-name="approxequal" unicode="&#x2248;" 
d="M86 169c-25 0 -47 20 -47 47s22 47 47 47c24 0 47 -20 47 -47s-23 -47 -47 -47z" />
    <glyph glyph-name="Delta" unicode="&#x394;" 
d="M86 169c-25 0 -47 20 -47 47s22 47 47 47c24 0 47 -20 47 -47s-23 -47 -47 -47z" />
    <glyph glyph-name="Delta" unicode="&#x2206;" 
d="M86 169c-25 0 -47 20 -47 47s22 47 47 47c24 0 47 -20 47 -47s-23 -47 -47 -47z" />
    <glyph glyph-name="nbspace" unicode="&#xa0;" horiz-adv-x="182" 
 />
    <glyph glyph-name="lozenge" unicode="&#x25ca;" 
d="M86 169c-25 0 -47 20 -47 47s22 47 47 47c24 0 47 -20 47 -47s-23 -47 -47 -47z" />
    <glyph glyph-name="Euro" unicode="&#x20ac;" horiz-adv-x="603" 
d="M104 288h-74v48h84c33 110 136 185 251 185c88 0 156 -32 199 -95l-45 -36c-35 51 -84 76 -154 76c-87 0 -157 -51 -185 -130h232v-48h-243c-1 -10 -2 -20 -2 -31c0 -12 1 -23 2 -34h243v-48h-231c30 -78 99 -128 184 -128c79 0 128 29 160 81l47 -34
c-43 -67 -111 -102 -207 -102c-114 0 -216 75 -250 183h-85v48h74c-1 11 -2 22 -2 34c0 10 1 21 2 31z" />
    <glyph glyph-name="apple" 
d="M86 169c-25 0 -47 20 -47 47s22 47 47 47c24 0 47 -20 47 -47s-23 -47 -47 -47z" />
    <glyph glyph-name="G.alt" horiz-adv-x="763" 
d="M392 -8c-193 0 -350 147 -350 348s155 348 348 348c120 0 216 -44 280 -135l-50 -37c-52 74 -126 113 -231 113c-161 0 -279 -124 -279 -289s119 -289 282 -289c156 0 231 88 254 173h-242v58h317c-13 -172 -133 -290 -329 -290z" />
    <glyph glyph-name="K.alt" horiz-adv-x="571" 
d="M152 276l309 404h74l-315 -413l323 -267h-94s-297 245 -297 244v-244h-65v680h65v-404z" />
    <glyph glyph-name="M.alt" horiz-adv-x="823" 
d="M72 0l76 694h5l258 -463l259 463h5l76 -694h-64l-56 519l-220 -398h-3l-219 398l-56 -519h-61z" />
    <glyph glyph-name="Q.alt" horiz-adv-x="782" 
d="M639 92l112 -120l-46 -40l-113 121c-57 -39 -126 -61 -201 -61c-193 0 -349 147 -349 348s156 348 349 348s349 -147 349 -348c0 -100 -38 -186 -101 -248zM551 97l-84 91l47 40l84 -91c47 52 74 122 74 203c0 165 -119 289 -281 289s-281 -124 -281 -289
s119 -289 281 -289c62 0 116 17 160 46z" />
    <glyph glyph-name="W.alt" horiz-adv-x="916" 
d="M429 406l-115 274h65l81 -196l80 196h62l-112 -269c0 1 118 -283 118 -283l214 552h64l-274 -694h-6l-147 349l-145 -349h-6l-278 694h67l219 -553z" />
    <glyph glyph-name="a.alt" horiz-adv-x="418" 
d="M190 -8c-91 0 -160 74 -160 172c0 99 69 173 160 173c54 0 93 -23 116 -64v56h61v-329h-61v56c-23 -41 -62 -64 -116 -64zM202 46c64 0 106 49 106 118c0 70 -42 119 -106 119c-65 0 -108 -49 -108 -119c0 -69 43 -118 108 -118z" />
    <glyph glyph-name="g.alt" horiz-adv-x="426" 
d="M207 -222c-79 0 -136 37 -167 99l51 26c22 -46 63 -71 114 -71c67 0 107 41 107 115v109c-24 -41 -65 -64 -119 -64c-92 0 -163 74 -163 172c0 99 71 173 163 173c54 0 95 -23 119 -64v56h61v-383c0 -104 -62 -168 -166 -168zM204 46c66 0 110 49 110 118
c0 70 -44 119 -110 119s-110 -49 -110 -119c0 -69 44 -118 110 -118z" />
    <glyph glyph-name="k.alt" horiz-adv-x="349" 
d="M112 140v-140h-61v710h61v-538l139 157h71l-150 -168l168 -161h-82z" />
    <glyph glyph-name="u.alt" horiz-adv-x="390" 
d="M194 -8c-86 0 -147 49 -147 151v186h61v-182c0 -72 33 -101 87 -101c55 0 87 29 87 101v182h61v-186c0 -102 -64 -151 -149 -151z" />
    <glyph glyph-name="aacute.alt" horiz-adv-x="418" 
d="M190 -8c-91 0 -160 74 -160 172c0 99 69 173 160 173c54 0 93 -23 116 -64v56h61v-329h-61v56c-23 -41 -62 -64 -116 -64zM202 46c64 0 106 49 106 118c0 70 -42 119 -106 119c-65 0 -108 -49 -108 -119c0 -69 43 -118 108 -118zM170 380l56 141h69l-76 -141h-49z" />
    <glyph glyph-name="agrave.alt" horiz-adv-x="418" 
d="M190 -8c-91 0 -160 74 -160 172c0 99 69 173 160 173c54 0 93 -23 116 -64v56h61v-329h-61v56c-23 -41 -62 -64 -116 -64zM202 46c64 0 106 49 106 118c0 70 -42 119 -106 119c-65 0 -108 -49 -108 -119c0 -69 43 -118 108 -118zM172 380l-76 141h69l56 -141h-49z" />
    <glyph glyph-name="acircumflex.alt" horiz-adv-x="418" 
d="M190 -8c-91 0 -160 74 -160 172c0 99 69 173 160 173c54 0 93 -23 116 -64v56h61v-329h-61v56c-23 -41 -62 -64 -116 -64zM202 46c64 0 106 49 106 118c0 70 -42 119 -106 119c-65 0 -108 -49 -108 -119c0 -69 43 -118 108 -118zM89 380l109 130h3l109 -130h-50l-60 58
l-61 -58h-50z" />
    <glyph glyph-name="adieresis.alt" horiz-adv-x="418" 
d="M190 -8c-91 0 -160 74 -160 172c0 99 69 173 160 173c54 0 93 -23 116 -64v56h61v-329h-61v56c-23 -41 -62 -64 -116 -64zM202 46c64 0 106 49 106 118c0 70 -42 119 -106 119c-65 0 -108 -49 -108 -119c0 -69 43 -118 108 -118zM266 384c-20 0 -39 17 -39 39
s19 39 39 39s39 -17 39 -39s-19 -39 -39 -39zM136 384c-20 0 -39 17 -39 39s19 39 39 39s39 -17 39 -39s-19 -39 -39 -39z" />
    <glyph glyph-name="atilde.alt" horiz-adv-x="418" 
d="M190 -8c-91 0 -160 74 -160 172c0 99 69 173 160 173c54 0 93 -23 116 -64v56h61v-329h-61v56c-23 -41 -62 -64 -116 -64zM202 46c64 0 106 49 106 118c0 70 -42 119 -106 119c-65 0 -108 -49 -108 -119c0 -69 43 -118 108 -118zM246 377c-41 0 -62 36 -87 36
c-16 0 -22 -12 -28 -35l-44 7c8 48 31 79 69 79c41 0 62 -35 87 -35c16 0 22 11 28 34l44 -7c-8 -48 -31 -79 -69 -79z" />
    <glyph glyph-name="aring.alt" horiz-adv-x="418" 
d="M190 -8c-91 0 -160 74 -160 172c0 99 69 173 160 173c54 0 93 -23 116 -64v56h61v-329h-61v56c-23 -41 -62 -64 -116 -64zM202 46c64 0 106 49 106 118c0 70 -42 119 -106 119c-65 0 -108 -49 -108 -119c0 -69 43 -118 108 -118zM196 375c-45 0 -82 36 -82 79
s37 80 82 80s82 -37 82 -80s-37 -79 -82 -79zM196 412c23 0 40 16 40 42c0 25 -17 42 -40 42s-40 -17 -40 -42c0 -26 17 -42 40 -42z" />
    <glyph glyph-name="uacute.alt" horiz-adv-x="390" 
d="M194 -8c-86 0 -147 49 -147 151v186h61v-182c0 -72 33 -101 87 -101c55 0 87 29 87 101v182h61v-186c0 -102 -64 -151 -149 -151zM169 380l56 141h69l-76 -141h-49z" />
    <glyph glyph-name="ugrave.alt" horiz-adv-x="390" 
d="M194 -8c-86 0 -147 49 -147 151v186h61v-182c0 -72 33 -101 87 -101c55 0 87 29 87 101v182h61v-186c0 -102 -64 -151 -149 -151zM174 380l-76 141h69l56 -141h-49z" />
    <glyph glyph-name="ucircumflex.alt" horiz-adv-x="390" 
d="M194 -8c-86 0 -147 49 -147 151v186h61v-182c0 -72 33 -101 87 -101c55 0 87 29 87 101v182h61v-186c0 -102 -64 -151 -149 -151zM84 380l109 130h3l109 -130h-50l-60 58l-61 -58h-50z" />
    <glyph glyph-name="udieresis.alt" horiz-adv-x="390" 
d="M194 -8c-86 0 -147 49 -147 151v186h61v-182c0 -72 33 -101 87 -101c55 0 87 29 87 101v182h61v-186c0 -102 -64 -151 -149 -151zM261 384c-20 0 -39 17 -39 39s19 39 39 39s39 -17 39 -39s-19 -39 -39 -39zM131 384c-20 0 -39 17 -39 39s19 39 39 39s39 -17 39 -39
s-19 -39 -39 -39z" />
    <glyph glyph-name="zero.up" horiz-adv-x="778" 
d="M391 -8c-193 0 -349 147 -349 348s156 348 349 348s349 -147 349 -348s-156 -348 -349 -348zM391 51c162 0 281 124 281 289s-119 289 -281 289s-281 -124 -281 -289s119 -289 281 -289z" />
    <glyph glyph-name="one.up" horiz-adv-x="292" 
d="M132 0v622h-99v58h165v-680h-66z" />
    <glyph glyph-name="two.up" horiz-adv-x="524" 
d="M29 0v5l282 300c60 64 96 120 96 192c0 75 -50 132 -139 132c-81 0 -135 -56 -156 -126c0 0 -59 19 -58 19c24 92 100 166 215 166c124 0 204 -79 204 -189c0 -89 -51 -161 -117 -231l-197 -210h319v-58h-449z" />
    <glyph glyph-name="three.up" horiz-adv-x="543" 
d="M264 -8c-115 0 -198 56 -239 133l54 29c34 -60 91 -103 183 -103c114 0 180 73 180 173c0 101 -69 169 -186 169c-38 0 -66 -7 -84 -13l-3 6l201 236h-290v58h406v-5l-198 -231c131 -5 220 -96 220 -222c0 -137 -100 -230 -244 -230z" />
    <glyph glyph-name="four.up" horiz-adv-x="573" 
d="M469 187h74v-55h-74v-132h-65v132h-389v5l450 559h4v-509zM404 187v351l-276 -351h276z" />
    <glyph glyph-name="five.up" horiz-adv-x="542" 
d="M263 -8c-107 0 -194 48 -238 128l55 29c34 -59 94 -98 183 -98c109 0 172 78 172 179c0 100 -68 177 -183 177c-68 0 -122 -22 -160 -56l-5 2v327h365v-58h-306v-185c32 18 69 28 114 28c144 0 242 -102 242 -235c0 -139 -92 -238 -239 -238z" />
    <glyph glyph-name="six.up" horiz-adv-x="550" 
d="M277 -8c-138 0 -235 101 -235 226c0 58 21 108 56 158l213 304h72l-184 -261c23 15 54 26 89 26c128 0 223 -99 223 -226c0 -125 -96 -227 -234 -227zM276 50c104 0 169 78 169 169c0 93 -62 170 -169 170c-103 0 -168 -75 -168 -170c0 -91 65 -169 168 -169z" />
    <glyph glyph-name="seven.up" horiz-adv-x="537" 
d="M107 0l312 622h-387v58h483v-5l-338 -675h-70z" />
    <glyph glyph-name="eight.up" horiz-adv-x="567" 
d="M186 386c-51 25 -90 72 -90 138c0 94 83 164 188 164s188 -70 188 -164c0 -66 -39 -113 -90 -138c85 -28 145 -93 145 -184c0 -123 -102 -210 -243 -210c-140 0 -244 87 -244 210c0 91 61 156 146 184zM284 411c75 0 123 45 123 109s-48 111 -123 111s-123 -47 -123 -111
s48 -109 123 -109zM284 50c106 0 177 64 177 153s-71 151 -177 151c-105 0 -177 -62 -177 -151c0 -90 72 -153 177 -153z" />
    <glyph glyph-name="nine.up" horiz-adv-x="557" 
d="M188 0l169 254c-24 -14 -55 -26 -92 -26c-132 0 -226 102 -226 229s97 231 237 231c141 0 239 -103 239 -229c0 -58 -25 -109 -61 -164l-195 -295h-71zM277 284c106 0 171 79 171 173s-63 173 -171 173s-172 -80 -172 -173s62 -173 172 -173z" />
    <glyph glyph-name="numbersign.up" horiz-adv-x="477" 
d="M146 518h-82v52h95l28 110h55l-28 -110h107l28 110h56l-28 -110h78v-52h-91l-35 -138h83v-51h-96l-26 -104h-56l26 104h-106l-26 -104h-56l26 104h-76v51h89zM308 518h-107l-34 -138h106z" />
    <glyph glyph-name="dollar.up" horiz-adv-x="517" 
d="M229 -7c-103 8 -169 66 -205 136l53 29c33 -56 73 -101 152 -109v289l-7 3c-99 46 -161 96 -161 192c0 89 75 150 168 155v85h49v-87c71 -10 115 -49 145 -99l-50 -32c-22 37 -49 64 -95 74v-246l15 -7c114 -53 174 -105 174 -205c0 -105 -72 -171 -189 -178v-109h-49
v109zM229 632c-64 -4 -105 -41 -105 -98c0 -60 34 -91 105 -127v225zM278 49c81 7 125 52 125 120c0 70 -46 108 -125 146v-266z" />
    <glyph glyph-name="percent.up" horiz-adv-x="771" 
d="M197 352c-89 0 -169 71 -169 168c0 98 80 168 169 168s169 -70 169 -168c0 -97 -80 -168 -169 -168zM139 0l427 680h66l-428 -680h-65zM573 -8c-89 0 -169 70 -169 168c0 97 80 168 169 168s170 -71 170 -168c0 -98 -81 -168 -170 -168zM197 406c60 0 109 47 109 114
c0 68 -49 114 -109 114s-109 -46 -109 -114c0 -67 49 -114 109 -114zM573 46c60 0 110 46 110 114s-50 114 -110 114s-109 -46 -109 -114s49 -114 109 -114z" />
    <glyph glyph-name="parenleft.up" horiz-adv-x="276" 
d="M211 -136c-84 88 -169 224 -169 427c0 202 85 339 169 427l40 -33c-78 -90 -143 -214 -143 -394s65 -304 143 -394z" />
    <glyph glyph-name="parenright.up" horiz-adv-x="276" 
d="M64 -136l-39 33c77 90 143 214 143 394s-66 304 -143 394l39 33c85 -88 170 -224 170 -427c0 -202 -85 -339 -170 -427z" />
    <glyph glyph-name="plus.up" horiz-adv-x="332" 
d="M195 293v-109h-58v109h-100v56h100v109h58v-109h100v-56h-100z" />
    <glyph glyph-name="comma.up" horiz-adv-x="175" 
d="M39 -82l31 80c-15 6 -28 22 -28 43c0 27 22 47 47 47c24 0 47 -20 47 -47c0 -14 -6 -25 -14 -38l-48 -85h-35z" />
    <glyph glyph-name="less.up" horiz-adv-x="319" 
d="M282 174l-253 139v4l253 137v-60l-150 -80l150 -80v-60z" />
    <glyph glyph-name="equal.up" horiz-adv-x="332" 
d="M37 350v56h258v-56h-258zM37 234v56h258v-56h-258z" />
    <glyph glyph-name="greater.up" horiz-adv-x="319" 
d="M37 174v60l151 80l-151 80v60l253 -139v-4z" />
    <glyph glyph-name="degree.up" horiz-adv-x="314" 
d="M157 438c-71 0 -128 56 -128 125c0 71 57 125 128 125c72 0 128 -54 128 -125c0 -69 -56 -125 -128 -125zM157 484c46 0 77 34 77 79s-31 80 -77 80s-77 -35 -77 -80s31 -79 77 -79z" />
    <glyph glyph-name="sterling.up" horiz-adv-x="538" 
d="M170 242h-112v51h93c-26 63 -55 125 -55 201c0 109 85 194 208 194c98 0 163 -51 195 -120l-53 -30c-28 57 -70 94 -143 94c-84 0 -140 -55 -140 -138c0 -77 27 -138 51 -201h177v-51h-160c9 -32 16 -65 16 -102c0 -12 -1 -23 -3 -34c37 -29 75 -57 135 -57
c49 0 77 19 105 49l41 -39c-41 -45 -81 -67 -146 -67c-68 0 -115 32 -154 64c-23 -38 -63 -64 -113 -64c-55 0 -99 33 -99 87s43 88 96 88c31 0 56 -9 79 -22c-1 34 -8 66 -18 97zM180 92c-22 16 -43 27 -67 27c-28 0 -46 -16 -46 -40s18 -39 46 -39c31 0 55 21 67 52z" />
    <glyph glyph-name="section.up" horiz-adv-x="549" 
d="M121 424c-19 28 -31 61 -31 100c0 95 77 164 183 164c95 0 150 -43 181 -101l-52 -32c-26 49 -67 76 -129 76c-74 0 -116 -45 -116 -106c0 -62 34 -94 92 -119l124 -52c98 -42 139 -93 139 -168c0 -54 -36 -96 -85 -120c20 -26 31 -57 31 -93c0 -89 -68 -153 -192 -153
c-106 0 -177 54 -211 111l49 35c27 -44 75 -88 162 -88c81 0 125 38 125 97c0 57 -38 83 -104 111l-117 50c-91 39 -133 87 -133 162c0 62 36 102 84 126zM391 102c35 16 58 45 58 81c0 51 -30 81 -102 112l-124 52c-26 11 -50 25 -70 43c-33 -18 -53 -45 -53 -85
c0 -56 31 -82 96 -110l117 -49c30 -13 56 -27 78 -44z" />
    <glyph glyph-name="germandbls.up" horiz-adv-x="423" 
d="M286 -8c-63 0 -103 27 -129 65l42 31c17 -26 42 -46 84 -46c38 0 57 18 57 45c0 34 -21 45 -70 60c-58 17 -102 48 -85 141l53 279c11 64 -11 98 -58 98c-45 0 -68 -27 -68 -85v-580h-61v581c0 95 62 137 129 137c76 0 137 -54 115 -162l-55 -280c-11 -55 15 -65 60 -79
c54 -15 99 -40 99 -106c0 -57 -34 -99 -113 -99z" />
    <glyph glyph-name="copyright.up" horiz-adv-x="786" 
d="M393 -8c-188 0 -349 147 -349 348s161 348 349 348s349 -147 349 -348s-161 -348 -349 -348zM393 32c169 0 306 130 306 308s-137 308 -306 308s-306 -130 -306 -308s137 -308 306 -308zM398 125c-118 0 -216 90 -216 214s98 215 216 215c72 0 129 -30 165 -81l-49 -38
c-25 36 -63 59 -114 59c-85 0 -151 -66 -151 -155c0 -90 66 -153 151 -153c54 0 93 23 119 60l50 -35c-36 -54 -97 -86 -171 -86z" />
    <glyph glyph-name="yen.up" horiz-adv-x="606" 
d="M272 219l-7 13h-189v50h162l-208 398h72l204 -398l203 398h67l-206 -398h162v-50h-188l-7 -13v-47h195v-50h-195v-122h-65v122h-196v50h196v47z" />
    <glyph glyph-name="ordfeminine.up" horiz-adv-x="351" 
d="M249 555v3c0 64 -28 81 -73 81c-48 0 -72 -23 -91 -46l-36 32c26 37 65 63 132 63c70 0 127 -36 127 -127v-194h-59v36c-21 -27 -55 -44 -99 -44c-66 0 -119 33 -119 102c0 64 56 94 123 94h95zM249 513h-91c-38 0 -69 -16 -69 -53c0 -35 27 -53 71 -53c47 0 89 24 89 68
v38z" />
    <glyph glyph-name="ordmasculine.up" horiz-adv-x="390" 
d="M196 359c-93 0 -167 71 -167 165c0 93 74 164 167 164c92 0 166 -71 166 -164c0 -94 -74 -165 -166 -165zM196 408c62 0 106 49 106 116c0 66 -44 115 -106 115c-63 0 -107 -49 -107 -115c0 -67 44 -116 107 -116z" />
    <glyph glyph-name="florin.up" horiz-adv-x="349" 
d="M110 257h-64v52h70c1 0 31 272 31 272c8 74 49 107 104 107c44 0 69 -17 89 -41l-40 -39c-11 15 -22 25 -44 25c-24 0 -42 -12 -47 -54l-31 -270h84v-52h-90l-53 -469h-61s53 469 52 469z" />
    <glyph glyph-name="fraction.up" horiz-adv-x="434" 
d="M-26 0l421 680h65l-421 -680h-65z" />
    <glyph glyph-name="Euro.up" horiz-adv-x="779" 
d="M113 347h-85v51h89c27 170 168 290 340 290c126 0 206 -47 267 -127l-50 -36c-52 65 -112 104 -218 104c-140 0 -246 -96 -270 -231h332v-51h-337v-7c0 -20 2 -40 5 -58h332v-50h-319c39 -108 137 -181 259 -181c109 0 184 39 235 112l51 -36
c-61 -87 -156 -135 -286 -135c-154 0 -285 97 -329 240h-101v50h89c-2 19 -4 38 -4 58v7z" />
    <glyph glyph-name="perthousand.up" horiz-adv-x="1158" 
d="M197 352c-89 0 -169 71 -169 168c0 98 80 168 169 168s169 -70 169 -168c0 -97 -80 -168 -169 -168zM139 0l427 680h66l-428 -680h-65zM961 -8c-89 0 -169 70 -169 168c0 97 80 168 169 168s169 -71 169 -168c0 -98 -80 -168 -169 -168zM573 -8c-89 0 -169 70 -169 168
c0 97 80 168 169 168s170 -71 170 -168c0 -98 -81 -168 -170 -168zM197 406c60 0 109 47 109 114c0 68 -49 114 -109 114s-109 -46 -109 -114c0 -67 49 -114 109 -114zM961 46c60 0 109 46 109 114s-49 114 -109 114s-109 -46 -109 -114s49 -114 109 -114zM573 46
c60 0 110 46 110 114s-50 114 -110 114s-109 -46 -109 -114s49 -114 109 -114z" />
    <glyph glyph-name="AE.alt" horiz-adv-x="921" 
d="M504 224l64 -166h320v-58h-364l-44 118h-337l-48 -118h-65l280 680h362v-58h-321l131 -340h279v-58h-257zM459 176l-140 377l-153 -377h293z" />
    <glyph glyph-name="fl.alt" horiz-adv-x="379" 
d="M130 277v-277h-61v277h-43v52h43v285c0 69 37 104 91 104c32 0 56 -9 72 -26l-31 -42c-5 7 -16 14 -35 14c-20 0 -36 -15 -36 -52v-283h74v-52h-74zM264 0v710h61v-710h-61z" />
    <glyph glyph-name="ffl.alt" horiz-adv-x="577" 
d="M267 277h-137v-277h-61v277h-43v52h43v283c0 72 39 106 92 106c35 0 60 -11 77 -28l-34 -41c-8 9 -18 15 -36 15c-22 0 -38 -14 -38 -54v-281h137v285c0 69 37 104 91 104c32 0 56 -9 72 -26l-31 -42c-5 7 -16 14 -35 14c-20 0 -36 -15 -36 -52v-283h74v-52h-74v-277h-61
v277zM462 0v710h61v-710h-61z" />
    <glyph glyph-name="at.up" horiz-adv-x="765" 
d="M392 -15c-205 0 -357 152 -357 352c0 199 156 351 350 351c202 0 344 -145 344 -332c0 -133 -60 -197 -136 -197c-57 0 -93 28 -106 77c-26 -48 -68 -74 -124 -74c-87 0 -155 74 -155 169c0 96 68 170 155 170c54 0 91 -26 112 -66v57h63v-211c0 -43 17 -71 56 -71
c42 0 79 46 79 145c0 162 -111 281 -289 281c-171 0 -288 -131 -288 -299c0 -169 117 -300 294 -300c52 0 103 11 145 35l26 -45c-48 -29 -105 -42 -169 -42zM373 216c62 0 103 49 103 115s-41 116 -103 116c-59 0 -100 -50 -100 -116s41 -115 100 -115z" />
    <glyph glyph-name="fb.alt" horiz-adv-x="636" 
d="M130 277v-277h-61v277h-43v52h43v285c0 69 37 104 91 104c32 0 56 -9 72 -26l-31 -42c-5 7 -16 14 -35 14c-20 0 -36 -15 -36 -52v-283h74v-52h-74zM444 -8c-55 0 -96 23 -119 64v-56h-61v710h61v-437c23 41 64 64 119 64c92 0 162 -74 162 -173
c0 -98 -70 -172 -162 -172zM432 46c66 0 111 49 111 118c0 70 -45 119 -111 119c-65 0 -109 -49 -109 -119c0 -69 44 -118 109 -118z" />
    <glyph glyph-name="fh.alt" horiz-adv-x="610" 
d="M130 277v-277h-61v277h-43v52h43v285c0 69 37 104 91 104c32 0 56 -9 72 -26l-31 -42c-5 7 -16 14 -35 14c-20 0 -36 -15 -36 -52v-283h74v-52h-74zM264 0v710h61v-434c24 40 63 61 113 61c72 0 126 -46 126 -135v-202h-61v196c0 58 -28 86 -80 86
c-59 0 -98 -37 -98 -100v-182h-61z" />
    <glyph glyph-name="fk.alt" horiz-adv-x="562" 
d="M130 277v-277h-61v277h-43v52h43v285c0 69 37 104 91 104c32 0 56 -9 72 -26l-31 -42c-5 7 -16 14 -35 14c-20 0 -36 -15 -36 -52v-283h74v-52h-74zM325 140v-140h-61v710h61v-538l139 157h71l-150 -168l168 -161h-82z" />
    <glyph glyph-name="ffb.alt" horiz-adv-x="834" 
d="M267 277h-137v-277h-61v277h-43v52h43v283c0 72 39 106 92 106c35 0 60 -11 77 -28l-34 -41c-8 9 -18 15 -36 15c-22 0 -38 -14 -38 -54v-281h137v285c0 69 37 104 91 104c32 0 56 -9 72 -26l-31 -42c-5 7 -16 14 -35 14c-20 0 -36 -15 -36 -52v-283h74v-52h-74v-277h-61
v277zM642 -8c-55 0 -96 23 -119 64v-56h-61v710h61v-437c23 41 64 64 119 64c92 0 162 -74 162 -173c0 -98 -70 -172 -162 -172zM630 46c66 0 111 49 111 118c0 70 -45 119 -111 119c-65 0 -109 -49 -109 -119c0 -69 44 -118 109 -118z" />
    <glyph glyph-name="ffh.alt" horiz-adv-x="808" 
d="M267 277h-137v-277h-61v277h-43v52h43v283c0 72 39 106 92 106c35 0 60 -11 77 -28l-34 -41c-8 9 -18 15 -36 15c-22 0 -38 -14 -38 -54v-281h137v285c0 69 37 104 91 104c32 0 56 -9 72 -26l-31 -42c-5 7 -16 14 -35 14c-20 0 -36 -15 -36 -52v-283h74v-52h-74v-277h-61
v277zM462 0v710h61v-434c24 40 63 61 113 61c72 0 126 -46 126 -135v-202h-61v196c0 58 -28 86 -80 86c-59 0 -98 -37 -98 -100v-182h-61z" />
    <glyph glyph-name="ffk.alt" horiz-adv-x="760" 
d="M267 277h-137v-277h-61v277h-43v52h43v283c0 72 39 106 92 106c35 0 60 -11 77 -28l-34 -41c-8 9 -18 15 -36 15c-22 0 -38 -14 -38 -54v-281h137v285c0 69 37 104 91 104c32 0 56 -9 72 -26l-31 -42c-5 7 -16 14 -35 14c-20 0 -36 -15 -36 -52v-283h74v-52h-74v-277h-61
v277zM523 140v-140h-61v710h61v-538l139 157h71l-150 -168l168 -161h-82z" />
    <glyph glyph-name="endash.up" horiz-adv-x="431" 
d="M39 224v59h353v-59h-353z" />
    <glyph glyph-name="emdash.up" horiz-adv-x="680" 
d="M39 224v59h602v-59h-602z" />
    <glyph glyph-name="Abreve" unicode="&#x102;" horiz-adv-x="640" 
d="M319 725c-57 0 -95 36 -106 83l50 11c8 -26 26 -43 56 -43s48 17 56 43l51 -11c-12 -47 -50 -83 -107 -83zM143 118l-48 -118h-65l286 696h5l287 -696h-67l-47 118h-351zM470 176c1 0 -151 377 -151 377l-153 -377h304z" />
    <glyph glyph-name="Amacron" unicode="&#x100;" horiz-adv-x="640" 
d="M234 749v49h170v-49h-170zM143 118l-48 -118h-65l286 696h5l287 -696h-67l-47 118h-351zM470 176c1 0 -151 377 -151 377l-153 -377h304z" />
    <glyph glyph-name="Aogonek" unicode="&#x104;" horiz-adv-x="638" 
d="M493 118c1 0 -350 0 -350 0l-48 -118h-65l286 696h5l284 -688l-33 -53c-18 -29 -27 -52 -27 -75c0 -21 14 -31 32 -31c21 0 33 14 40 28l36 -24c-13 -25 -38 -46 -79 -46c-40 0 -78 24 -78 70c0 33 17 63 34 88l16 22zM166 176h304l-151 377z" />
    <glyph glyph-name="Cacute" unicode="&#x106;" horiz-adv-x="709" 
d="M361 735l56 141h69l-76 -141h-49zM388 -8c-195 0 -347 146 -346 348c0 202 151 348 344 348c115 0 206 -47 267 -127l-50 -36c-51 66 -123 104 -218 104c-158 0 -275 -124 -275 -289c0 -167 119 -289 280 -289c98 0 177 41 231 113l51 -36c-67 -88 -162 -136 -284 -136z
" />
    <glyph glyph-name="Ccaron" unicode="&#x10c;" horiz-adv-x="709" 
d="M375 732l-109 130h50l60 -58l61 58h50l-109 -130h-3zM388 -8c-195 0 -347 146 -346 348c0 202 151 348 344 348c115 0 206 -47 267 -127l-50 -36c-51 66 -123 104 -218 104c-158 0 -275 -124 -275 -289c0 -167 119 -289 280 -289c98 0 177 41 231 113l51 -36
c-67 -88 -162 -136 -284 -136z" />
    <glyph glyph-name="Ccircumflex" unicode="&#x108;" horiz-adv-x="709" 
d="M265 735l109 130h3l109 -130h-50l-60 58l-61 -58h-50zM388 -8c-195 0 -347 146 -346 348c0 202 151 348 344 348c115 0 206 -47 267 -127l-50 -36c-51 66 -123 104 -218 104c-158 0 -275 -124 -275 -289c0 -167 119 -289 280 -289c98 0 177 41 231 113l51 -36
c-67 -88 -162 -136 -284 -136z" />
    <glyph glyph-name="Dcaron" unicode="&#x10e;" horiz-adv-x="662" 
d="M260 732l-109 130h50l60 -58l61 58h50l-109 -130h-3zM87 0v680h170c225 0 359 -139 359 -340s-133 -340 -359 -340h-170zM152 59h99c201 0 297 116 297 281s-96 281 -297 281h-99v-562z" />
    <glyph glyph-name="Dcroat" unicode="&#x110;" horiz-adv-x="659" 
d="M88 225h-71v57h71v398h170c225 0 359 -139 359 -340s-133 -340 -359 -340h-170v225zM153 282h178v-57h-178v-166h99c201 0 297 116 297 281s-96 281 -297 281h-99v-339z" />
    <glyph glyph-name="Ecaron" unicode="&#x11a;" horiz-adv-x="564" 
d="M293 732l-109 130h50l60 -58l61 58h50l-109 -130h-3zM87 0v680h410v-58h-345v-340h308v-57h-308v-167h359v-58h-424z" />
    <glyph glyph-name="Edotaccent" unicode="&#x116;" horiz-adv-x="564" 
d="M295 742c-20 0 -39 17 -39 39s19 39 39 39s39 -17 39 -39s-19 -39 -39 -39zM87 0v680h410v-58h-345v-340h308v-57h-308v-167h359v-58h-424z" />
    <glyph glyph-name="Emacron" unicode="&#x112;" horiz-adv-x="564" 
d="M212 749v49h170v-49h-170zM87 0v680h410v-58h-345v-340h308v-57h-308v-167h359v-58h-424z" />
    <glyph glyph-name="Eogonek" unicode="&#x118;" horiz-adv-x="564" 
d="M88 0v680h410v-58h-345v-340h308v-57h-308v-167h359v-58h-37l-28 -45c-18 -28 -28 -52 -28 -74c0 -23 15 -33 33 -33c21 0 33 13 41 28l34 -23c-13 -24 -37 -45 -78 -45c-39 0 -76 23 -76 69c0 33 17 63 35 88l24 35h-344z" />
    <glyph glyph-name="Gbreve" unicode="&#x11e;" horiz-adv-x="724" 
d="M379 725c-57 0 -95 36 -106 83l50 11c8 -26 26 -43 56 -43s48 17 56 43l51 -11c-12 -47 -50 -83 -107 -83zM397 -8c-199 0 -355 147 -355 348s154 348 345 348c119 0 198 -42 256 -106l-46 -43c-47 52 -107 90 -212 90c-158 0 -275 -124 -275 -289s119 -289 287 -289
c100 0 163 29 207 66v107h-205v58h267v-195c-62 -55 -141 -95 -269 -95z" />
    <glyph glyph-name="Gbreve.alt" horiz-adv-x="764" 
d="M384 725c-57 0 -95 36 -106 83l50 11c8 -26 26 -43 56 -43s48 17 56 43l51 -11c-12 -47 -50 -83 -107 -83zM392 -8c-193 0 -350 147 -350 348s155 348 348 348c120 0 216 -44 280 -135l-50 -37c-52 74 -126 113 -231 113c-161 0 -279 -124 -279 -289s119 -289 282 -289
c156 0 231 88 254 173h-242v58h317c-13 -172 -133 -290 -329 -290z" />
    <glyph glyph-name="Gcircumflex" unicode="&#x11c;" horiz-adv-x="724" 
d="M266 735l109 130h3l109 -130h-50l-60 58l-61 -58h-50zM397 -8c-199 0 -355 147 -355 348s154 348 345 348c119 0 198 -42 256 -106l-46 -43c-47 52 -107 90 -212 90c-158 0 -275 -124 -275 -289s119 -289 287 -289c100 0 163 29 207 66v107h-205v58h267v-195
c-62 -55 -141 -95 -269 -95z" />
    <glyph glyph-name="Gcircumflex.alt" horiz-adv-x="764" 
d="M276 735l109 130h3l109 -130h-50l-60 58l-61 -58h-50zM392 -8c-193 0 -350 147 -350 348s155 348 348 348c120 0 216 -44 280 -135l-50 -37c-52 74 -126 113 -231 113c-161 0 -279 -124 -279 -289s119 -289 282 -289c156 0 231 88 254 173h-242v58h317
c-13 -172 -133 -290 -329 -290z" />
    <glyph glyph-name="Gcommaaccent" unicode="&#x122;" horiz-adv-x="724" 
d="M397 -8c-199 0 -355 147 -355 348s154 348 345 348c119 0 198 -42 256 -106l-46 -43c-47 52 -107 90 -212 90c-158 0 -275 -124 -275 -289s119 -289 287 -289c100 0 163 29 207 66v107h-205v58h267v-195c-62 -55 -141 -95 -269 -95zM347 -199l23 74c-14 5 -25 20 -25 39
c0 25 20 44 43 44c22 0 43 -19 43 -44c0 -13 -5 -24 -12 -36l-40 -77h-32z" />
    <glyph glyph-name="Gcommaaccent.alt" horiz-adv-x="747" 
d="M392 -8c-193 0 -350 147 -350 348s155 348 348 348c120 0 216 -44 280 -135l-50 -37c-52 74 -126 113 -231 113c-161 0 -279 -124 -279 -289s119 -289 282 -289c156 0 231 88 254 173h-242v58h317c-13 -172 -133 -290 -329 -290zM349 -199l23 74c-14 5 -25 20 -25 39
c0 25 20 44 43 44c22 0 43 -19 43 -44c0 -13 -5 -24 -12 -36l-40 -77h-32z" />
    <glyph glyph-name="Hcircumflex" unicode="&#x124;" horiz-adv-x="677" 
d="M226 735l109 130h3l109 -130h-50l-60 58l-61 -58h-50zM523 282v398h65v-680h-65v224h-371v-224h-65v680h65v-398h371z" />
    <glyph glyph-name="Idotaccent" unicode="&#x130;" horiz-adv-x="248" 
d="M124 742c-20 0 -39 17 -39 39s19 39 39 39s39 -17 39 -39s-19 -39 -39 -39zM91 0v680h66v-680h-66z" />
    <glyph glyph-name="Imacron" unicode="&#x12a;" horiz-adv-x="248" 
d="M38 749v49h170v-49h-170zM91 0v680h66v-680h-66z" />
    <glyph glyph-name="Iogonek" unicode="&#x12e;" horiz-adv-x="248" 
d="M122 -45c-18 -29 -27 -52 -27 -75c0 -21 14 -31 32 -31c21 0 33 14 40 28l36 -24c-13 -25 -38 -46 -79 -46c-40 0 -78 24 -78 70c0 33 17 63 34 88l25 35h-14v680h66v-669z" />
    <glyph glyph-name="Jcircumflex" unicode="&#x134;" horiz-adv-x="461" 
d="M227 735l109 130h3l109 -130h-50l-60 58l-61 -58h-50zM201 -8c-90 0 -143 43 -174 100l53 33c25 -46 62 -74 119 -74c66 0 113 38 113 128v501h66v-503c0 -123 -76 -185 -177 -185z" />
    <glyph glyph-name="Kcommaaccent" unicode="&#x136;" horiz-adv-x="590" 
d="M152 288l309 392h73l-254 -323l283 -357h-78l-246 310l-87 -108v-202h-65v680h65v-392zM258 -199l23 74c-14 5 -25 20 -25 39c0 25 20 44 43 44c22 0 43 -19 43 -44c0 -13 -5 -24 -12 -36l-40 -77h-32z" />
    <glyph glyph-name="Kcommaaccent.alt" horiz-adv-x="576" 
d="M152 276l309 404h74l-315 -413l323 -267h-94s-297 245 -297 244v-244h-65v680h65v-404zM254 -199l23 74c-14 5 -25 20 -25 39c0 25 20 44 43 44c22 0 43 -19 43 -44c0 -13 -5 -24 -12 -36l-40 -77h-32z" />
    <glyph glyph-name="Lacute" unicode="&#x139;" horiz-adv-x="503" 
d="M97 735l56 141h69l-76 -141h-49zM87 0v680h65v-622h316v-58h-381z" />
    <glyph glyph-name="Lcaron" unicode="&#x13d;" horiz-adv-x="503" 
d="M275 525l28 75c-15 5 -30 21 -30 42c0 26 22 45 46 45s46 -19 46 -45c0 -14 -5 -26 -12 -38l-44 -79h-34zM87 0v680h65v-622h316v-58h-381z" />
    <glyph glyph-name="Lcommaaccent" unicode="&#x13b;" horiz-adv-x="503" 
d="M87 0v680h65v-622h316v-58h-381zM233 -199l23 74c-14 5 -25 20 -25 39c0 25 20 44 43 44c22 0 43 -19 43 -44c0 -13 -5 -24 -12 -36l-40 -77h-32z" />
    <glyph glyph-name="Nacute" unicode="&#x143;" horiz-adv-x="700" 
d="M320 735l56 141h69l-76 -141h-49zM606 -14l-458 549v-535h-61v694h6l458 -549v535h61v-694h-6z" />
    <glyph glyph-name="Ncaron" unicode="&#x147;" horiz-adv-x="700" 
d="M353 732l-109 130h50l60 -58l61 58h50l-109 -130h-3zM606 -14l-458 549v-535h-61v694h6l458 -549v535h61v-694h-6z" />
    <glyph glyph-name="Ncommaaccent" unicode="&#x145;" horiz-adv-x="700" 
d="M606 -14l-458 549v-535h-61v694h6l458 -549v535h61v-694h-6zM302 -199l23 74c-14 5 -25 20 -25 39c0 25 20 44 43 44c22 0 43 -19 43 -44c0 -13 -5 -24 -12 -36l-40 -77h-32z" />
    <glyph glyph-name="Ohungarumlaut" unicode="&#x150;" horiz-adv-x="784" 
d="M417 735l54 141h63l-68 -141h-49zM309 735l53 141h63l-67 -141h-49zM391 -8c-193 0 -349 147 -349 348s156 348 349 348s349 -147 349 -348s-156 -348 -349 -348zM391 51c162 0 281 124 281 289s-119 289 -281 289s-281 -124 -281 -289s119 -289 281 -289z" />
    <glyph glyph-name="Omacron" unicode="&#x14c;" horiz-adv-x="784" 
d="M306 749v49h170v-49h-170zM391 -8c-193 0 -349 147 -349 348s156 348 349 348s349 -147 349 -348s-156 -348 -349 -348zM391 51c162 0 281 124 281 289s-119 289 -281 289s-281 -124 -281 -289s119 -289 281 -289z" />
    <glyph glyph-name="Racute" unicode="&#x154;" horiz-adv-x="572" 
d="M229 735l56 141h69l-76 -141h-49zM357 189l148 -189h-79l-135 174c-18 -3 -36 -4 -56 -4h-83v-170h-65v680h148c185 0 281 -109 281 -256c0 -109 -54 -198 -159 -235zM152 227h79c155 0 217 83 217 197s-63 198 -217 198h-79v-395z" />
    <glyph glyph-name="Rcaron" unicode="&#x158;" horiz-adv-x="572" 
d="M263 732l-109 130h50l60 -58l61 58h50l-109 -130h-3zM357 189l148 -189h-79l-135 174c-18 -3 -36 -4 -56 -4h-83v-170h-65v680h148c185 0 281 -109 281 -256c0 -109 -54 -198 -159 -235zM152 227h79c155 0 217 83 217 197s-63 198 -217 198h-79v-395z" />
    <glyph glyph-name="Rcommaaccent" unicode="&#x156;" horiz-adv-x="572" 
d="M357 189l148 -189h-79l-135 174c-18 -3 -36 -4 -56 -4h-83v-170h-65v680h148c185 0 281 -109 281 -256c0 -109 -54 -198 -159 -235zM240 -199l23 74c-14 5 -25 20 -25 39c0 25 20 44 43 44c22 0 43 -19 43 -44c0 -13 -5 -24 -12 -36l-40 -77h-32zM152 227h79
c155 0 217 83 217 197s-63 198 -217 198h-79v-395z" />
    <glyph glyph-name="Sacute" unicode="&#x15a;" horiz-adv-x="525" 
d="M225 735l56 141h69l-76 -141h-49zM29 129l55 29c36 -68 98 -107 178 -107c93 0 148 46 148 117c0 75 -46 109 -128 147l-55 26c-98 46 -157 90 -157 185c0 97 75 162 175 162c85 0 144 -32 186 -100l-50 -32c-31 51 -73 75 -135 75c-67 0 -112 -43 -112 -103
c0 -65 37 -89 120 -128l55 -26c109 -52 166 -102 166 -204c0 -112 -85 -178 -212 -178c-111 0 -190 54 -234 137z" />
    <glyph glyph-name="Scircumflex" unicode="&#x15c;" horiz-adv-x="525" 
d="M141 735l109 130h3l109 -130h-50l-60 58l-61 -58h-50zM29 129l55 29c36 -68 98 -107 178 -107c93 0 148 46 148 117c0 75 -46 109 -128 147l-55 26c-98 46 -157 90 -157 185c0 97 75 162 175 162c85 0 144 -32 186 -100l-50 -32c-31 51 -73 75 -135 75
c-67 0 -112 -43 -112 -103c0 -65 37 -89 120 -128l55 -26c109 -52 166 -102 166 -204c0 -112 -85 -178 -212 -178c-111 0 -190 54 -234 137z" />
    <glyph glyph-name="Scommaaccent" unicode="&#x218;" horiz-adv-x="525" 
d="M29 129l55 29c36 -68 98 -107 178 -107c93 0 148 46 148 117c0 75 -46 109 -128 147l-55 26c-98 46 -157 90 -157 185c0 97 75 162 175 162c85 0 144 -32 186 -100l-50 -32c-31 51 -73 75 -135 75c-67 0 -112 -43 -112 -103c0 -65 37 -89 120 -128l55 -26
c109 -52 166 -102 166 -204c0 -112 -85 -178 -212 -178c-111 0 -190 54 -234 137zM222 -199l23 74c-14 5 -25 20 -25 39c0 25 20 44 43 44c22 0 43 -19 43 -44c0 -13 -5 -24 -12 -36l-40 -77h-32z" />
    <glyph glyph-name="Tcaron" unicode="&#x164;" horiz-adv-x="538" 
d="M267 732l-109 130h50l60 -58l61 58h50l-109 -130h-3zM236 0v622h-211v58h486v-58h-210v-622h-65z" />
    <glyph glyph-name="Tcommaaccent" unicode="&#x162;" horiz-adv-x="538" 
d="M236 0v622h-211v58h486v-58h-210v-622h-65zM227 -199l23 74c-14 5 -25 20 -25 39c0 25 20 44 43 44c22 0 43 -19 43 -44c0 -13 -5 -24 -12 -36l-40 -77h-32z" />
    <glyph glyph-name="Tcommaaccent" unicode="&#x21a;" horiz-adv-x="538" 
d="M236 0v622h-211v58h486v-58h-210v-622h-65zM227 -199l23 74c-14 5 -25 20 -25 39c0 25 20 44 43 44c22 0 43 -19 43 -44c0 -13 -5 -24 -12 -36l-40 -77h-32z" />
    <glyph glyph-name="Ubreve" unicode="&#x16c;" horiz-adv-x="645" 
d="M321 725c-57 0 -95 36 -106 83l50 11c8 -26 26 -43 56 -43s48 17 56 43l51 -11c-12 -47 -50 -83 -107 -83zM322 -8c-137 0 -240 81 -240 239v449h65v-444c0 -123 69 -185 175 -185c107 0 175 62 175 185v444h65v-449c0 -158 -103 -239 -240 -239z" />
    <glyph glyph-name="Uhungarumlaut" unicode="&#x170;" horiz-adv-x="645" 
d="M347 735l54 141h63l-68 -141h-49zM239 735l53 141h63l-67 -141h-49zM322 -8c-137 0 -240 81 -240 239v449h65v-444c0 -123 69 -185 175 -185c107 0 175 62 175 185v444h65v-449c0 -158 -103 -239 -240 -239z" />
    <glyph glyph-name="Umacron" unicode="&#x16a;" horiz-adv-x="645" 
d="M236 749v49h170v-49h-170zM322 -8c-137 0 -240 81 -240 239v449h65v-444c0 -123 69 -185 175 -185c107 0 175 62 175 185v444h65v-449c0 -158 -103 -239 -240 -239z" />
    <glyph glyph-name="Uogonek" unicode="&#x172;" horiz-adv-x="645" 
d="M305 -8c-129 7 -223 88 -223 239v449h66v-444c0 -123 68 -185 174 -185c107 0 175 62 175 185v444h67v-449c0 -147 -90 -227 -213 -238l-24 -38c-18 -29 -27 -52 -27 -75c0 -21 14 -31 32 -31c21 0 33 14 40 28l36 -24c-13 -25 -38 -46 -79 -46c-40 0 -78 24 -78 70
c0 33 17 63 34 88z" />
    <glyph glyph-name="Uring" unicode="&#x16e;" horiz-adv-x="645" 
d="M321 730c-45 0 -82 36 -82 79s37 80 82 80s82 -37 82 -80s-37 -79 -82 -79zM322 -8c-137 0 -240 81 -240 239v449h65v-444c0 -123 69 -185 175 -185c107 0 175 62 175 185v444h65v-449c0 -158 -103 -239 -240 -239zM321 767c23 0 40 16 40 42c0 25 -17 42 -40 42
s-40 -17 -40 -42c0 -26 17 -42 40 -42z" />
    <glyph glyph-name="Zacute" unicode="&#x179;" horiz-adv-x="579" 
d="M274 735l56 141h69l-76 -141h-49zM32 0v4l396 618h-347v58h453v-4l-396 -618h398v-58h-504z" />
    <glyph glyph-name="Zdotaccent" unicode="&#x17b;" horiz-adv-x="579" 
d="M296 742c-20 0 -39 17 -39 39s19 39 39 39s39 -17 39 -39s-19 -39 -39 -39zM32 0v4l396 618h-347v58h453v-4l-396 -618h398v-58h-504z" />
    <glyph glyph-name="abreve" unicode="&#x103;" horiz-adv-x="369" 
d="M183 370c-57 0 -95 36 -106 83l50 11c8 -26 26 -43 56 -43s48 17 56 43l51 -11c-12 -47 -50 -83 -107 -83zM259 199v3c0 61 -30 83 -77 83c-42 0 -70 -16 -93 -47l-39 34c33 44 77 65 134 65c84 0 136 -44 136 -135v-202h-61v37c-22 -28 -58 -45 -103 -45
c-69 0 -125 34 -125 106c0 67 59 101 129 101h99zM259 150h-95c-40 0 -72 -15 -72 -52s28 -56 74 -56c49 0 93 26 93 72v36z" />
    <glyph glyph-name="abreve.alt" horiz-adv-x="420" 
d="M207 370c-57 0 -95 36 -106 83l50 11c8 -26 26 -43 56 -43s48 17 56 43l51 -11c-12 -47 -50 -83 -107 -83zM190 -8c-91 0 -160 74 -160 172c0 99 69 173 160 173c54 0 93 -23 116 -64v56h61v-329h-61v56c-23 -41 -62 -64 -116 -64zM202 46c64 0 106 49 106 118
c0 70 -42 119 -106 119c-65 0 -108 -49 -108 -119c0 -69 43 -118 108 -118z" />
    <glyph glyph-name="amacron" unicode="&#x101;" horiz-adv-x="369" 
d="M104 394v49h170v-49h-170zM259 199v3c0 61 -30 83 -77 83c-42 0 -70 -16 -93 -47l-39 34c33 44 77 65 134 65c84 0 136 -44 136 -135v-202h-61v37c-22 -28 -58 -45 -103 -45c-69 0 -125 34 -125 106c0 67 59 101 129 101h99zM259 150h-95c-40 0 -72 -15 -72 -52
s28 -56 74 -56c49 0 93 26 93 72v36z" />
    <glyph glyph-name="amacron.alt" horiz-adv-x="420" 
d="M125 394v49h170v-49h-170zM190 -8c-91 0 -160 74 -160 172c0 99 69 173 160 173c54 0 93 -23 116 -64v56h61v-329h-61v56c-23 -41 -62 -64 -116 -64zM202 46c64 0 106 49 106 118c0 70 -42 119 -106 119c-65 0 -108 -49 -108 -119c0 -69 43 -118 108 -118z" />
    <glyph glyph-name="aogonek" unicode="&#x105;" horiz-adv-x="368" 
d="M259 199v1c0 66 -29 85 -75 85c-51 0 -77 -24 -96 -48l-38 34c28 39 67 66 139 66c74 0 132 -38 132 -134v-197l-32 -51c-18 -29 -27 -52 -27 -75c0 -21 14 -31 32 -31c21 0 33 14 40 28l36 -24c-13 -25 -38 -46 -79 -46c-40 0 -78 24 -78 70c0 33 17 63 34 88l25 35h-13
v37c-22 -28 -58 -45 -103 -45c-69 0 -125 34 -125 106c0 67 59 101 129 101h99zM259 150h-95c-40 0 -72 -15 -72 -52s28 -56 74 -56c49 0 93 26 93 72v36z" />
    <glyph glyph-name="aogonek.alt" horiz-adv-x="420" 
d="M368 8l-33 -53c-18 -29 -27 -52 -27 -75c0 -21 14 -31 32 -31c21 0 33 14 40 28l36 -24c-13 -25 -38 -46 -79 -46c-40 0 -78 24 -78 70c0 33 17 63 34 88l25 35h-12v56c-23 -41 -62 -64 -116 -64c-91 0 -160 74 -160 172c0 99 69 173 160 173c54 0 93 -23 116 -64v56h62
v-321zM202 46c64 0 106 49 106 118c0 70 -42 119 -106 119c-65 0 -108 -49 -108 -119c0 -69 43 -118 108 -118z" />
    <glyph glyph-name="cacute" unicode="&#x107;" horiz-adv-x="362" 
d="M167 380l56 141h69l-76 -141h-49zM200 -8c-96 0 -170 74 -170 172c0 99 74 173 170 173c58 0 99 -19 130 -53l-41 -37c-21 23 -51 37 -89 37c-64 0 -106 -52 -106 -120c0 -67 42 -119 106 -119c45 0 76 18 97 41l41 -36c-31 -37 -76 -58 -138 -58z" />
    <glyph glyph-name="ccaron" unicode="&#x10d;" horiz-adv-x="362" 
d="M191 377l-109 130h50l60 -58l61 58h50l-109 -130h-3zM200 -8c-96 0 -170 74 -170 172c0 99 74 173 170 173c58 0 99 -19 130 -53l-41 -37c-21 23 -51 37 -89 37c-64 0 -106 -52 -106 -120c0 -67 42 -119 106 -119c45 0 76 18 97 41l41 -36c-31 -37 -76 -58 -138 -58z" />
    <glyph glyph-name="ccircumflex" unicode="&#x109;" horiz-adv-x="362" 
d="M82 380l109 130h3l109 -130h-50l-60 58l-61 -58h-50zM200 -8c-96 0 -170 74 -170 172c0 99 74 173 170 173c58 0 99 -19 130 -53l-41 -37c-21 23 -51 37 -89 37c-64 0 -106 -52 -106 -120c0 -67 42 -119 106 -119c45 0 76 18 97 41l41 -36c-31 -37 -76 -58 -138 -58z" />
    <glyph glyph-name="dcaron" unicode="&#x10f;" horiz-adv-x="481" 
d="M411 525l28 75c-15 5 -30 21 -30 42c0 26 22 45 46 45s46 -19 46 -45c0 -14 -5 -26 -12 -38l-44 -79h-34zM193 -8c-92 0 -163 74 -163 172c0 99 71 173 163 173c54 0 95 -23 119 -64v437h61v-710h-61v56c-24 -41 -65 -64 -119 -64zM204 46c66 0 110 49 110 118
c0 70 -44 119 -110 119s-110 -49 -110 -119c0 -69 44 -118 110 -118z" />
    <glyph glyph-name="dcroat" unicode="&#x111;" horiz-adv-x="431" 
d="M312 470h-96v51h96v189h61v-189h61v-51h-61v-470h-61v56c-24 -41 -65 -64 -119 -64c-92 0 -163 74 -163 172c0 99 71 173 163 173c54 0 95 -23 119 -64v197zM204 46c66 0 110 49 110 118c0 70 -44 119 -110 119s-110 -49 -110 -119c0 -69 44 -118 110 -118z" />
    <glyph glyph-name="ecaron" unicode="&#x11b;" horiz-adv-x="399" 
d="M199 377l-109 130h50l60 -58l61 58h50l-109 -130h-3zM94 142c9 -61 51 -98 115 -98c51 0 81 18 103 43l38 -37c-30 -36 -75 -58 -140 -58c-107 0 -180 74 -180 172c0 99 77 173 173 173c105 0 169 -82 167 -195h-276zM96 193h210c-8 52 -41 92 -103 92
c-57 0 -97 -36 -107 -92z" />
    <glyph glyph-name="edotaccent" unicode="&#x117;" horiz-adv-x="399" 
d="M202 387c-20 0 -39 17 -39 39s19 39 39 39s39 -17 39 -39s-19 -39 -39 -39zM94 142c9 -61 51 -98 115 -98c51 0 81 18 103 43l38 -37c-30 -36 -75 -58 -140 -58c-107 0 -180 74 -180 172c0 99 77 173 173 173c105 0 169 -82 167 -195h-276zM96 193h210
c-8 52 -41 92 -103 92c-57 0 -97 -36 -107 -92z" />
    <glyph glyph-name="emacron" unicode="&#x113;" horiz-adv-x="399" 
d="M117 394v49h170v-49h-170zM94 142c9 -61 51 -98 115 -98c51 0 81 18 103 43l38 -37c-30 -36 -75 -58 -140 -58c-107 0 -180 74 -180 172c0 99 77 173 173 173c105 0 169 -82 167 -195h-276zM96 193h210c-8 52 -41 92 -103 92c-57 0 -97 -36 -107 -92z" />
    <glyph glyph-name="eogonek" unicode="&#x119;" horiz-adv-x="400" 
d="M240 -6l-24 -39c-18 -29 -27 -52 -27 -75c0 -21 14 -31 32 -31c21 0 33 14 40 28l36 -24c-13 -25 -38 -46 -79 -46c-40 0 -78 24 -78 70c0 33 17 63 34 88l20 28c-98 7 -164 78 -164 171c0 99 77 173 173 173c105 0 169 -82 167 -195h-276c9 -61 51 -98 115 -98
c51 0 81 18 103 43l38 -37c-25 -30 -61 -50 -110 -56zM96 193h210c-8 52 -41 92 -103 92c-57 0 -97 -36 -107 -92z" />
    <glyph glyph-name="gbreve" unicode="&#x11f;" horiz-adv-x="365" 
d="M180 370c-57 0 -95 36 -106 83l50 11c8 -26 26 -43 56 -43s48 17 56 43l51 -11c-12 -47 -50 -83 -107 -83zM225 329h119v-49h-61c16 -20 26 -45 26 -72c0 -74 -58 -128 -133 -128c-25 0 -46 5 -65 14c-14 -4 -22 -15 -22 -29c0 -22 11 -35 97 -38
c121 -5 169 -53 169 -121c0 -79 -68 -129 -176 -129c-106 0 -174 46 -174 120c0 50 29 83 80 98c-35 10 -50 36 -50 64c0 29 17 49 44 60c-23 22 -37 54 -37 89c0 75 58 129 134 129c18 0 34 -3 49 -8zM176 129c47 0 78 33 78 79c0 47 -31 80 -78 80s-79 -33 -79 -80
c0 -46 32 -79 79 -79zM179 -170c69 0 115 26 115 74c0 44 -33 68 -124 68c-73 0 -108 -27 -108 -71c0 -47 47 -71 117 -71z" />
    <glyph glyph-name="gbreve.alt" horiz-adv-x="426" 
d="M206 370c-57 0 -95 36 -106 83l50 11c8 -26 26 -43 56 -43s48 17 56 43l51 -11c-12 -47 -50 -83 -107 -83zM207 -222c-79 0 -136 37 -167 99l51 26c22 -46 63 -71 114 -71c67 0 107 41 107 115v109c-24 -41 -65 -64 -119 -64c-92 0 -163 74 -163 172c0 99 71 173 163 173
c54 0 95 -23 119 -64v56h61v-383c0 -104 -62 -168 -166 -168zM204 46c66 0 110 49 110 118c0 70 -44 119 -110 119s-110 -49 -110 -119c0 -69 44 -118 110 -118z" />
    <glyph glyph-name="gcircumflex" unicode="&#x11d;" horiz-adv-x="365" 
d="M75 380l109 130h3l109 -130h-50l-60 58l-61 -58h-50zM225 329h119v-49h-61c16 -20 26 -45 26 -72c0 -74 -58 -128 -133 -128c-25 0 -46 5 -65 14c-14 -4 -22 -15 -22 -29c0 -22 11 -35 97 -38c121 -5 169 -53 169 -121c0 -79 -68 -129 -176 -129c-106 0 -174 46 -174 120
c0 50 29 83 80 98c-35 10 -50 36 -50 64c0 29 17 49 44 60c-23 22 -37 54 -37 89c0 75 58 129 134 129c18 0 34 -3 49 -8zM176 129c47 0 78 33 78 79c0 47 -31 80 -78 80s-79 -33 -79 -80c0 -46 32 -79 79 -79zM179 -170c69 0 115 26 115 74c0 44 -33 68 -124 68
c-73 0 -108 -27 -108 -71c0 -47 47 -71 117 -71z" />
    <glyph glyph-name="gcircumflex.alt" horiz-adv-x="426" 
d="M96 380l109 130h3l109 -130h-50l-60 58l-61 -58h-50zM207 -222c-79 0 -136 37 -167 99l51 26c22 -46 63 -71 114 -71c67 0 107 41 107 115v109c-24 -41 -65 -64 -119 -64c-92 0 -163 74 -163 172c0 99 71 173 163 173c54 0 95 -23 119 -64v56h61v-383
c0 -104 -62 -168 -166 -168zM204 46c66 0 110 49 110 118c0 70 -44 119 -110 119s-110 -49 -110 -119c0 -69 44 -118 110 -118z" />
    <glyph glyph-name="gcommaaccent" unicode="&#x123;" horiz-adv-x="365" 
d="M182 384c-24 0 -46 20 -46 45c0 14 5 27 12 39l44 79h34l-28 -75c15 -6 30 -21 30 -42c0 -26 -22 -46 -46 -46zM225 329h119v-49h-61c16 -20 26 -45 26 -72c0 -74 -58 -128 -133 -128c-25 0 -46 5 -65 14c-14 -4 -22 -15 -22 -29c0 -22 11 -35 97 -38
c121 -5 169 -53 169 -121c0 -79 -68 -129 -176 -129c-106 0 -174 46 -174 120c0 50 29 83 80 98c-35 10 -50 36 -50 64c0 29 17 49 44 60c-23 22 -37 54 -37 89c0 75 58 129 134 129c18 0 34 -3 49 -8zM176 129c47 0 78 33 78 79c0 47 -31 80 -78 80s-79 -33 -79 -80
c0 -46 32 -79 79 -79zM179 -170c69 0 115 26 115 74c0 44 -33 68 -124 68c-73 0 -108 -27 -108 -71c0 -47 47 -71 117 -71z" />
    <glyph glyph-name="gcommaaccent.alt" horiz-adv-x="426" 
d="M206 384c-24 0 -46 20 -46 45c0 14 5 27 12 39l44 79h34l-28 -75c15 -6 30 -21 30 -42c0 -26 -22 -46 -46 -46zM207 -222c-79 0 -136 37 -167 99l51 26c22 -46 63 -71 114 -71c67 0 107 41 107 115v109c-24 -41 -65 -64 -119 -64c-92 0 -163 74 -163 172
c0 99 71 173 163 173c54 0 95 -23 119 -64v56h61v-383c0 -104 -62 -168 -166 -168zM204 46c66 0 110 49 110 118c0 70 -44 119 -110 119s-110 -49 -110 -119c0 -69 44 -118 110 -118z" />
    <glyph glyph-name="hcircumflex" unicode="&#x125;" horiz-adv-x="400" 
d="M73 744l109 130h3l109 -130h-50l-60 58l-61 -58h-50zM51 0v710h61v-434c24 40 63 61 113 61c72 0 126 -46 126 -135v-202h-61v196c0 58 -28 86 -80 86c-59 0 -98 -37 -98 -100v-182h-61z" />
    <glyph glyph-name="imacron" unicode="&#x12b;" horiz-adv-x="170" 
d="M-1 394v49h170v-49h-170zM54 0v329h62v-329h-62z" />
    <glyph glyph-name="iogonek" unicode="&#x12f;" horiz-adv-x="168" 
d="M84 449c-22 0 -42 18 -42 42s20 42 42 42s42 -18 42 -42s-20 -42 -42 -42zM81 -45c-18 -29 -27 -52 -27 -75c0 -21 14 -31 32 -31c21 0 33 14 40 28l36 -24c-13 -25 -38 -46 -79 -46c-40 0 -78 24 -78 70c0 33 17 63 34 88l25 35h-11v329h62v-319z" />
    <glyph glyph-name="jcircumflex" unicode="&#x135;" horiz-adv-x="170" 
d="M-28 380l109 130h3l109 -130h-50l-60 58l-61 -58h-50zM27 -221c-32 0 -52 11 -68 26l31 40c8 -7 18 -12 30 -12c24 0 35 14 35 45v451h62v-451c0 -64 -34 -99 -90 -99z" />
    <glyph glyph-name="kcommaaccent" unicode="&#x137;" horiz-adv-x="357" 
d="M112 88v-88h-61v710h61v-543l140 162h72l-124 -141l145 -188h-76l-109 142c0 1 -30 -34 -48 -54zM147 -199l23 74c-14 5 -25 20 -25 39c0 25 20 44 43 44c22 0 43 -19 43 -44c0 -13 -5 -24 -12 -36l-40 -77h-32z" />
    <glyph glyph-name="kcommaaccent.alt" horiz-adv-x="349" 
d="M112 140v-140h-61v710h61v-538l139 157h71l-150 -168l168 -161h-82zM147 -199l23 74c-14 5 -25 20 -25 39c0 25 20 44 43 44c22 0 43 -19 43 -44c0 -13 -5 -24 -12 -36l-40 -77h-32z" />
    <glyph glyph-name="lacute" unicode="&#x13a;" horiz-adv-x="170" 
d="M59 744l56 141h69l-76 -141h-49zM54 0v710h62v-710h-62z" />
    <glyph glyph-name="lcaron" unicode="&#x13e;" horiz-adv-x="225" 
d="M155 525l28 75c-15 5 -30 21 -30 42c0 26 22 45 46 45s46 -19 46 -45c0 -14 -5 -26 -12 -38l-44 -79h-34zM54 0v710h62v-710h-62z" />
    <glyph glyph-name="lcommaaccent" unicode="&#x13c;" horiz-adv-x="170" 
d="M54 0v710h62v-710h-62zM44 -199l23 74c-14 5 -25 20 -25 39c0 25 20 44 43 44c22 0 43 -19 43 -44c0 -13 -5 -24 -12 -36l-40 -77h-32z" />
    <glyph glyph-name="nacute" unicode="&#x144;" horiz-adv-x="398" 
d="M177 380l56 141h69l-76 -141h-49zM51 0v329h61v-53c21 40 63 61 113 61c72 0 126 -46 126 -135v-202h-61v196c0 58 -28 86 -80 86c-59 0 -98 -37 -98 -100v-182h-61z" />
    <glyph glyph-name="ncaron" unicode="&#x148;" horiz-adv-x="398" 
d="M196 377l-109 130h50l60 -58l61 58h50l-109 -130h-3zM51 0v329h61v-53c21 40 63 61 113 61c72 0 126 -46 126 -135v-202h-61v196c0 58 -28 86 -80 86c-59 0 -98 -37 -98 -100v-182h-61z" />
    <glyph glyph-name="ncommaaccent" unicode="&#x146;" horiz-adv-x="398" 
d="M51 0v329h61v-53c21 40 63 61 113 61c72 0 126 -46 126 -135v-202h-61v196c0 58 -28 86 -80 86c-59 0 -98 -37 -98 -100v-182h-61zM160 -199l23 74c-14 5 -25 20 -25 39c0 25 20 44 43 44c22 0 43 -19 43 -44c0 -13 -5 -24 -12 -36l-40 -77h-32z" />
    <glyph glyph-name="ohungarumlaut" unicode="&#x151;" horiz-adv-x="409" 
d="M227 380l54 141h63l-68 -141h-49zM119 380l53 141h63l-67 -141h-49zM205 -8c-98 0 -175 74 -175 172c0 99 77 173 175 173c97 0 174 -74 174 -173c0 -98 -77 -172 -174 -172zM205 44c66 0 111 52 111 120c0 69 -45 121 -111 121s-111 -52 -111 -121
c0 -68 45 -120 111 -120z" />
    <glyph glyph-name="omacron" unicode="&#x14d;" horiz-adv-x="409" 
d="M119 394v49h170v-49h-170zM205 -8c-98 0 -175 74 -175 172c0 99 77 173 175 173c97 0 174 -74 174 -173c0 -98 -77 -172 -174 -172zM205 44c66 0 111 52 111 120c0 69 -45 121 -111 121s-111 -52 -111 -121c0 -68 45 -120 111 -120z" />
    <glyph glyph-name="racute" unicode="&#x155;" horiz-adv-x="273" 
d="M116 380l56 141h69l-76 -141h-49zM51 0v329h61v-55c21 43 58 63 96 63c23 0 37 -4 52 -13l-21 -52c-11 6 -23 9 -41 9c-49 0 -86 -40 -86 -107v-174h-61z" />
    <glyph glyph-name="rcaron" unicode="&#x159;" horiz-adv-x="273" 
d="M150 377l-109 130h50l60 -58l61 58h50l-109 -130h-3zM51 0v329h61v-55c21 43 58 63 96 63c23 0 37 -4 52 -13l-21 -52c-11 6 -23 9 -41 9c-49 0 -86 -40 -86 -107v-174h-61z" />
    <glyph glyph-name="rcommaaccent" unicode="&#x157;" horiz-adv-x="273" 
d="M51 0v329h61v-55c21 43 58 63 96 63c23 0 37 -4 52 -13l-21 -52c-11 6 -23 9 -41 9c-49 0 -86 -40 -86 -107v-174h-61zM42 -199l23 74c-14 5 -25 20 -25 39c0 25 20 44 43 44c22 0 43 -19 43 -44c0 -13 -5 -24 -12 -36l-40 -77h-32z" />
    <glyph glyph-name="sacute" unicode="&#x15b;" horiz-adv-x="318" 
d="M125 380l56 141h69l-76 -141h-49zM163 -8c-63 0 -111 28 -141 74l44 31c20 -33 53 -53 97 -53c42 0 66 17 66 44c0 29 -23 41 -80 57c-65 18 -104 43 -104 101c0 54 43 91 108 91c52 0 87 -19 113 -53l-41 -34c-16 21 -37 35 -71 35c-33 0 -52 -16 -52 -37
c0 -29 21 -37 72 -50c70 -18 114 -47 114 -107c0 -62 -47 -99 -125 -99z" />
    <glyph glyph-name="scircumflex" unicode="&#x15d;" horiz-adv-x="318" 
d="M45 380l109 130h3l109 -130h-50l-60 58l-61 -58h-50zM163 -8c-63 0 -111 28 -141 74l44 31c20 -33 53 -53 97 -53c42 0 66 17 66 44c0 29 -23 41 -80 57c-65 18 -104 43 -104 101c0 54 43 91 108 91c52 0 87 -19 113 -53l-41 -34c-16 21 -37 35 -71 35
c-33 0 -52 -16 -52 -37c0 -29 21 -37 72 -50c70 -18 114 -47 114 -107c0 -62 -47 -99 -125 -99z" />
    <glyph glyph-name="scommaaccent" unicode="&#x219;" horiz-adv-x="318" 
d="M163 -8c-63 0 -111 28 -141 74l44 31c20 -33 53 -53 97 -53c42 0 66 17 66 44c0 29 -23 41 -80 57c-65 18 -104 43 -104 101c0 54 43 91 108 91c52 0 87 -19 113 -53l-41 -34c-16 21 -37 35 -71 35c-33 0 -52 -16 -52 -37c0 -29 21 -37 72 -50c70 -18 114 -47 114 -107
c0 -62 -47 -99 -125 -99zM119 -199l23 74c-14 5 -25 20 -25 39c0 25 20 44 43 44c22 0 43 -19 43 -44c0 -13 -5 -24 -12 -36l-40 -77h-32z" />
    <glyph glyph-name="tcaron" unicode="&#x165;" horiz-adv-x="277" 
d="M202 525l28 75c-15 5 -30 21 -30 42c0 26 22 45 46 45s46 -19 46 -45c0 -14 -5 -26 -12 -38l-44 -79h-34zM69 277h-43v52h43v205h61v-205h82v-52h-82v-188c0 -30 11 -44 35 -44c15 0 27 7 36 14l26 -43c-15 -14 -39 -24 -69 -24c-54 0 -89 29 -89 94v191z" />
    <glyph glyph-name="tcommaaccent" unicode="&#x163;" horiz-adv-x="248" 
d="M69 277h-43v52h43v205h61v-205h82v-52h-82v-188c0 -30 11 -44 35 -44c15 0 27 7 36 14l26 -43c-15 -14 -39 -24 -69 -24c-54 0 -89 29 -89 94v191zM101 -199l23 74c-14 5 -25 20 -25 39c0 25 20 44 43 44c22 0 43 -19 43 -44c0 -13 -5 -24 -12 -36l-40 -77h-32z" />
    <glyph glyph-name="tcommaaccent" unicode="&#x21b;" horiz-adv-x="248" 
d="M69 277h-43v52h43v205h61v-205h82v-52h-82v-188c0 -30 11 -44 35 -44c15 0 27 7 36 14l26 -43c-15 -14 -39 -24 -69 -24c-54 0 -89 29 -89 94v191zM101 -199l23 74c-14 5 -25 20 -25 39c0 25 20 44 43 44c22 0 43 -19 43 -44c0 -13 -5 -24 -12 -36l-40 -77h-32z" />
    <glyph glyph-name="ubreve" unicode="&#x16d;" horiz-adv-x="400" 
d="M198 370c-57 0 -95 36 -106 83l50 11c8 -26 26 -43 56 -43s48 17 56 43l51 -11c-12 -47 -50 -83 -107 -83zM172 -8c-75 0 -126 45 -126 135v202h61v-196c0 -59 28 -86 80 -86c59 0 98 36 98 99v183h61v-329h-61v53c-22 -40 -63 -61 -113 -61z" />
    <glyph glyph-name="ubreve.alt" horiz-adv-x="391" 
d="M194 370c-57 0 -95 36 -106 83l50 11c8 -26 26 -43 56 -43s48 17 56 43l51 -11c-12 -47 -50 -83 -107 -83zM194 -8c-86 0 -147 49 -147 151v186h61v-182c0 -72 33 -101 87 -101c55 0 87 29 87 101v182h61v-186c0 -102 -64 -151 -149 -151z" />
    <glyph glyph-name="uhungarumlaut" unicode="&#x171;" horiz-adv-x="400" 
d="M221 380l54 141h63l-68 -141h-49zM113 380l53 141h63l-67 -141h-49zM172 -8c-75 0 -126 45 -126 135v202h61v-196c0 -59 28 -86 80 -86c59 0 98 36 98 99v183h61v-329h-61v53c-22 -40 -63 -61 -113 -61z" />
    <glyph glyph-name="uhungarumlaut.alt" horiz-adv-x="391" 
d="M222 380l54 141h63l-68 -141h-49zM114 380l53 141h63l-67 -141h-49zM194 -8c-86 0 -147 49 -147 151v186h61v-182c0 -72 33 -101 87 -101c55 0 87 29 87 101v182h61v-186c0 -102 -64 -151 -149 -151z" />
    <glyph glyph-name="umacron" unicode="&#x16b;" horiz-adv-x="400" 
d="M112 394v49h170v-49h-170zM172 -8c-75 0 -126 45 -126 135v202h61v-196c0 -59 28 -86 80 -86c59 0 98 36 98 99v183h61v-329h-61v53c-22 -40 -63 -61 -113 -61z" />
    <glyph glyph-name="umacron.alt" horiz-adv-x="391" 
d="M109 394v49h170v-49h-170zM194 -8c-86 0 -147 49 -147 151v186h61v-182c0 -72 33 -101 87 -101c55 0 87 29 87 101v182h61v-186c0 -102 -64 -151 -149 -151z" />
    <glyph glyph-name="uogonek" unicode="&#x173;" horiz-adv-x="399" 
d="M287 0v53c-22 -40 -63 -61 -113 -61c-75 0 -127 45 -127 135v202h62v-196c0 -59 28 -86 80 -86c59 0 98 36 98 99v183h61v-319l-34 -55c-18 -29 -27 -52 -27 -75c0 -21 14 -31 32 -31c21 0 33 14 40 28l36 -24c-13 -25 -38 -46 -79 -46c-40 0 -78 24 -78 70
c0 33 17 63 34 88l25 35h-10z" />
    <glyph glyph-name="uogonek.alt" horiz-adv-x="391" 
d="M177 -7c-77 6 -130 55 -130 150v186h62v-182c0 -72 32 -101 86 -101c55 0 87 29 87 101v182h61v-186c0 -90 -50 -139 -120 -149l-24 -39c-18 -29 -27 -52 -27 -75c0 -21 14 -31 32 -31c21 0 33 14 40 28l36 -24c-13 -25 -38 -46 -79 -46c-40 0 -78 24 -78 70
c0 33 17 63 34 88z" />
    <glyph glyph-name="uring" unicode="&#x16f;" horiz-adv-x="400" 
d="M197 375c-45 0 -82 36 -82 79s37 80 82 80s82 -37 82 -80s-37 -79 -82 -79zM172 -8c-75 0 -126 45 -126 135v202h61v-196c0 -59 28 -86 80 -86c59 0 98 36 98 99v183h61v-329h-61v53c-22 -40 -63 -61 -113 -61zM197 412c23 0 40 16 40 42c0 25 -17 42 -40 42
s-40 -17 -40 -42c0 -26 17 -42 40 -42z" />
    <glyph glyph-name="uring.alt" horiz-adv-x="391" 
d="M194 375c-45 0 -82 36 -82 79s37 80 82 80s82 -37 82 -80s-37 -79 -82 -79zM194 -8c-86 0 -147 49 -147 151v186h61v-182c0 -72 33 -101 87 -101c55 0 87 29 87 101v182h61v-186c0 -102 -64 -151 -149 -151zM194 412c23 0 40 16 40 42c0 25 -17 42 -40 42
s-40 -17 -40 -42c0 -26 17 -42 40 -42z" />
    <glyph glyph-name="zacute" unicode="&#x17a;" horiz-adv-x="331" 
d="M142 380l56 141h69l-76 -141h-49zM22 0v3l185 274h-162v52h259v-4l-185 -273h180v-52h-277z" />
    <glyph glyph-name="zdotaccent" unicode="&#x17c;" horiz-adv-x="331" 
d="M171 387c-20 0 -39 17 -39 39s19 39 39 39s39 -17 39 -39s-19 -39 -39 -39zM22 0v3l185 274h-162v52h259v-4l-185 -273h180v-52h-277z" />
    <glyph glyph-name="idotaccent" horiz-adv-x="168" 
d="M84 449c-22 0 -42 18 -42 42s20 42 42 42s42 -18 42 -42s-20 -42 -42 -42zM53 0v329h62v-329h-62z" />
    <glyph glyph-name="hyphen.up" horiz-adv-x="234" 
d="M36 227v55h162v-55h-162z" />
    <glyph glyph-name="space.up" horiz-adv-x="222" 
 />
    <glyph glyph-name="infinity" horiz-adv-x="579" 
d="M495 449c-22 0 -42 18 -42 42s20 42 42 42s42 -18 42 -42s-20 -42 -42 -42zM266 329v282c0 72 39 107 95 107c38 0 63 -13 81 -35l-37 -39c-9 12 -21 20 -39 20c-23 0 -39 -14 -39 -54v-281h198v-329h-61v277h-137v-277h-61v277h-136v-277h-61v277h-43v52h43v283
c0 72 39 106 92 106c35 0 60 -11 77 -28l-34 -41c-8 9 -18 15 -36 15c-22 0 -38 -14 -38 -54v-281h136z" />
    <glyph glyph-name="notequal" horiz-adv-x="438" 
d="M327 277v-277h-61v277h-136v-277h-61v277h-43v52h43v283c0 72 39 106 92 106c35 0 60 -11 77 -28l-34 -41c-8 9 -18 15 -36 15c-22 0 -38 -14 -38 -54v-281h136v282c0 72 39 107 95 107c38 0 63 -13 81 -35l-37 -39c-9 12 -21 20 -39 20c-23 0 -39 -14 -39 -54v-281h83
v-52h-83z" />
    </font>
</defs>
</svg>
